<svg id="Layer_1" data-name="Layer 1" xmlns="http://www.w3.org/2000/svg" viewBox="0 0 1000 1000"><defs><style>.cls-1{fill:#fff;}</style></defs><title>vsp-square-favicon-white</title><path class="cls-1" d="M115.44,650.21,372.17,428.33a13.53,13.53,0,0,1,18.5.77l115,117.45a13.29,13.29,0,0,0,18.38.59l321.56-289a106.28,106.28,0,0,0-48.32-22.88c-30.73-5.83-161.86-10.44-297-10.44-135.47,0-266.29,4.61-297,10.44a104.45,104.45,0,0,0-52.23,26.39c-31.88,29.57-34.2,80.2-39,122.9-5.83,77.24-4.7,146.37,0,231C113.25,629.83,114.29,640.93,115.44,650.21Z"/><path class="cls-1" d="M877.39,313.87,525,630.63a18.44,18.44,0,0,1-25.49-.81L389,517a16.36,16.36,0,0,0-22.38-.93l-232,200.54A78.52,78.52,0,0,0,148,735.25c13.51,13.8,31.95,23.33,53.14,27.62,31.35,6.43,82.33,8.91,231.58,11.67,124.5,2,234.16-.13,363.35-9.88a103,103,0,0,0,54.68-27.93c9.53-9.5,15-18.12,21.5-34.39,10.44-25.77,14.11-50.67,18.72-121,1.22-21.2,1.22-141.58,0-162.77C888.89,387.11,888,349.42,877.39,313.87Z"/></svg>