<?xml version="1.0" encoding="utf-8"?>
<!-- Generator: Adobe Illustrator 16.0.0, SVG Export Plug-In . SVG Version: 6.00 Build 0)  -->
<!DOCTYPE svg PUBLIC "-//W3C//DTD SVG 1.1//EN" "http://www.w3.org/Graphics/SVG/1.1/DTD/svg11.dtd">
<svg version="1.1" id="Layer_1" xmlns="http://www.w3.org/2000/svg" xmlns:xlink="http://www.w3.org/1999/xlink" x="0px" y="0px"
 viewBox="0 0 800 800" enable-background="new 0 0 800 800" xml:space="preserve">
<path fill="#4EB59E" d="M400,800c-53.984,0-106.372-10.58-155.708-31.448c-47.635-20.147-90.409-48.983-127.134-85.708
	s-65.562-79.5-85.709-127.135C10.581,506.373,0,453.985,0,400c0-53.985,10.581-106.373,31.448-155.709
	c20.148-47.636,48.984-90.41,85.709-127.134c36.725-36.725,79.499-65.561,127.134-85.708C293.628,10.581,346.016,0,400,0
	s106.373,10.581,155.709,31.448c47.635,20.148,90.41,48.984,127.135,85.708c36.724,36.724,65.561,79.499,85.708,127.134
	C789.419,293.627,800,346.015,800,400c0,53.985-10.581,106.373-31.448,155.709c-20.147,47.635-48.984,90.409-85.708,127.135
	c-36.725,36.725-79.5,65.561-127.135,85.708C506.373,789.42,453.984,800,400,800z M400,67.701
	c-88.759,0-172.208,34.565-234.97,97.328C102.266,227.792,67.701,311.239,67.701,400s34.565,172.208,97.329,234.972
	c62.763,62.764,146.211,97.327,234.97,97.327c88.761,0,172.208-34.563,234.971-97.327c62.764-62.764,97.328-146.211,97.328-234.972
	s-34.564-172.208-97.328-234.971C572.208,102.266,488.762,67.701,400,67.701z"/>
<path fill="#4EB59E" d="M672.516,400.555L570.404,298.447V145.283h-68.066v85.089L400.222,128.265l-272.291,272.29v17.019h68.075
	v170.179h170.183V485.648h68.074v102.104h170.179V417.573h68.074V400.555L672.516,400.555z"/>
</svg>
