<?xml version="1.0" encoding="utf-8"?>
<!-- Generator: Adobe Illustrator 16.0.0, SVG Export Plug-In . SVG Version: 6.00 Build 0)  -->
<!DOCTYPE svg PUBLIC "-//W3C//DTD SVG 1.1//EN" "http://www.w3.org/Graphics/SVG/1.1/DTD/svg11.dtd">
<svg version="1.1" id="Layer_3" xmlns="http://www.w3.org/2000/svg" xmlns:xlink="http://www.w3.org/1999/xlink" x="0px" y="0px"
 viewBox="34 34 32 32" enable-background="new 34 34 32 32" xml:space="preserve">
<path fill="#F2634B" d="M50,34.458c-8.583,0-15.542,6.958-15.542,15.542c0,8.583,6.958,15.541,15.542,15.541
	c8.583,0,15.541-6.958,15.541-15.541C65.541,41.417,58.583,34.458,50,34.458z M55.93,42.373l-2.15,0.001
	c-1.686,0-2.011,0.801-2.011,1.977v2.591h4.02l-0.002,4.059h-4.018v10.417h-4.193V51.001h-3.505v-4.059h3.505v-2.994
	c0-3.474,2.123-5.366,5.221-5.366l3.133,0.004V42.373L55.93,42.373z"/>
</svg>
