<?xml version="1.0" encoding="utf-8"?>
<!-- Generator: Adobe Illustrator 16.0.0, SVG Export Plug-In . SVG Version: 6.00 Build 0)  -->
<!DOCTYPE svg PUBLIC "-//W3C//DTD SVG 1.1//EN" "http://www.w3.org/Graphics/SVG/1.1/DTD/svg11.dtd">
<svg version="1.1" id="Layer_1" xmlns="http://www.w3.org/2000/svg" xmlns:xlink="http://www.w3.org/1999/xlink" x="0px" y="0px"
 viewBox="0 0 800 800" enable-background="new 0 0 800 800" xml:space="preserve">
<g>
	<path fill="#B4C34F" d="M459.626,271.684l-6.354,55.697c11.432,9.318,4.232,26.047,6.354,39.178
		c-6.568,7.411-12.708,1.483-20.758,6.142c-9.951,17.363,0.423,36.425,8.261,51.458l12.497-14.398l30.92-53.58
		c20.75-20.116,43.835-39.389,67.978-47.434c23.085-2.545,42.355,3.809,61.836,10.375c9.104,19.907,32.399,25.834,26.684,49.553
		c-5.08,19.272,59.938,52.948,49.345,72.008c-10.165,14.822-19.692,26.258-37.058,30.92c-24.781,12.917-40.452-14.824-61.84-10.379
		c-4.87,1.27-8.046,6.989-12.281,10.379c-2.753,16.729,11.013,31.555,16.521,47.438c1.268,11.858,5.506,22.66,6.142,34.94H199.993
		c-3.602-20.541,5.504-41.08,8.26-61.835c9.955-19.906,7.412-42.566,1.904-63.743c-5.083-0.425-4.021,5.504-6.141,8.256
		c-8.259-0.422-1.059-11.012-6.141-14.402c-7.415,3.175-16.31,9.531-24.778,4.024c-5.504-9.952-12.495,1.698-20.543-2.118
		c-14.613-4.659-35.579-3.176-41.295-20.541c-5.716-10.801-8.682-22.45-10.165-34.946l63.744-30.917
		c-3.388-24.354,24.78-24.777,37.06-37.059c28.167-1.483,64.168-9.106,84.499,14.4c6.568,19.693,19.273,37.062,29.012,55.486
		l18.427,51.671l10.378,12.284c6.776-11.648,12.917-26.051,10.163-39.181l10.377-67.976c-23.294-19.695-22.021-49.347-33.035-74.122
		c0.85-6.988-1.694-15.036,2.118-20.757c20.122,12.711,32.826,51.04,59.721,39.181c14.399,1.483,31.556-3.386,43.416,4.235
		c12.493-11.224,16.306-26.258,24.564-39.177c-2.749-1.276-2.749-5.085,0-6.143C470.211,243.097,463.221,259.188,459.626,271.684z"
		/>
</g>
<circle fill="none" stroke="#B4C34F" stroke-width="60" stroke-miterlimit="10" cx="399.688" cy="400.061" r="364.095"/>
</svg>
