<?xml version="1.0" encoding="utf-8"?>
<!-- Generator: Adobe Illustrator 16.0.0, SVG Export Plug-In . SVG Version: 6.00 Build 0)  -->
<!DOCTYPE svg PUBLIC "-//W3C//DTD SVG 1.1//EN" "http://www.w3.org/Graphics/SVG/1.1/DTD/svg11.dtd">
<svg version="1.1" id="Capa_1" xmlns="http://www.w3.org/2000/svg" xmlns:xlink="http://www.w3.org/1999/xlink" x="0px" y="0px"
	 viewBox="0 0 522 811" enable-background="new 0 0 522 811" xml:space="preserve">
<polygon fill="#F2634B" points="0,0 0,811 260.624,697 522,811 522,0 "/>
<polygon fill="#F2634B" points="221,172 248,172 286,159 309,159 315,186 268,260 252,260 216,206.76 "/>
<path fill="#FCFCFC" d="M326.916,355.089c-0.659-3.271-1.319-6.698-1.97-10.475c0,0-0.073-9.009-5.331-16.277
	c-2.995,2.971-8.163,9.808-13.461,20.778l-38.422,79.578c-2.385,4.939-2.531,10.727-0.375,15.479
	c1.791,3.964,5.006,6.779,9.059,7.911c11.866,3.328,23.951,4.744,36.974,4.061c9.727-0.495,18.102-10.855,17.556-21.729
	l-3.979-78.813C326.956,355.438,326.933,355.275,326.916,355.089z"/>
<path fill="#FCFCFC" d="M266.062,565.6c107.088,0,194.202-87.123,194.202-194.2c0-79.229-47.708-147.479-115.893-177.656
	c-0.131,0.391-0.18,0.797-0.317,1.188c-1.913,7.902-4.532,15.268-7.626,22.137c58.558,26.816,99.412,85.82,99.412,154.322
	c0,38.08-12.753,73.149-34.003,101.505c-14.128-12.037-27.85-25.385-38.161-41.426c-13.218-20.565-21.462-30.812-27.68-45.242
	l2.417,47.822c0.758,15.057-10.767,28.883-24.651,29.601c-2.181,0.104-4.32,0.162-6.413,0.162c-11.215,0-22.308-1.514-32.978-4.501
	c-6.233-1.732-11.158-6.015-13.876-12.036c-3.053-6.756-2.881-14.909,0.464-21.827l38.423-79.587
	c1.578-3.265,7.999-16.024,14.877-22.666c-0.204-0.139-0.357-0.316-0.578-0.455c-9.352-5.714-17.457,1.514-42.906,1.236
	c-1.7-3.932-5.607-6.697-10.164-6.697c-3.939,0-7.373,2.083-9.336,5.184c-33.318-4.598-63.162-20.94-71.465-25.799
	c0.041-0.366,0.14-0.726,0.14-1.107c0-6.047-6.291-10.938-14.056-10.938c-7.771,0-14.071,4.891-14.071,10.938
	c0,3.997,2.8,7.455,6.901,9.359c0.635,16.221,7.715,70.13,71.789,85.594l-12.892,21.6c-3.833,6.43-4.688,13.868-2.336,20.396
	c2.174,6.048,6.788,10.597,12.998,12.812c6.616,2.367,13.745,4.605,21.176,6.673c0,0,10.815,26.801,19.085,42.158v46.91
	c-0.847,0.008-1.66,0.129-2.498,0.129c-93.617,0-169.786-76.168-169.786-169.784c0-66.166,38.129-123.461,93.495-151.466
	c-4.811-10.295-7.634-18.678-8.943-22.983c-64.458,31.626-108.958,97.923-108.958,174.45
	C71.854,478.477,158.979,565.6,266.062,565.6z M276.059,506.799c6.642,10.173,14.502,19.857,23.888,28.42v2.557
	c-7.772,1.578-15.781,2.426-23.888,2.904V506.799z"/>
<path fill="#FFFFFF" d="M194.119,189.73c0,0,16.992,64.644,66.508,83.64c0,0,53.007-27.126,66.175-82.745
	c0.024-0.105,0.024-0.187,0.049-0.293c1.596-4.126,2.557-8.578,2.557-13.274c0-20.387-16.521-36.908-36.908-36.908
	c-13.689,0-25.506,7.537-31.871,18.613c-6.372-11.068-18.181-18.613-31.879-18.613c-20.388,0-36.907,16.521-36.907,36.908
	c0,4.46,0.911,8.676,2.36,12.631C194.191,189.697,194.119,189.73,194.119,189.73z M234.055,211.167l23.139,8.545l20.835-44.111
	c2.043-4.322,7.512-7.154,12.216-6.324l7.479,1.318c4.713,0.83,6.332,4.704,3.63,8.643l-42.62,62.179
	c-2.711,3.947-7.098,3.947-9.815,0.016l-18.06-26.141C228.139,211.354,229.562,209.515,234.055,211.167z"/>
<g>
	<g>
		<path fill="#FCFCFC" d="M87.416,121.025c13.666,16.764,27.331,33.528,40.996,50.292c-4.589,3.761-9.052,7.745-13.373,11.952
			c-10.15-10.491-20.301-20.98-30.454-31.468c8.071,12.515,16.524,24.728,25.346,36.616c-2.982,3.11-5.889,6.332-8.716,9.666
			c-12.514-7.288-25.336-14.14-38.45-20.531c11.166,8.865,22.332,17.728,33.499,26.589c-3.85,4.889-7.534,10-11.038,15.334
			c-18.06-11.863-36.12-23.726-54.18-35.589c6.771-10.307,14.057-19.977,21.796-29.009c3.639,1.745,7.801,3.958,12.468,6.662
			c4.935,2.712,9.824,5.49,14.666,8.331c-6.215-8.18-12.264-16.512-18.143-24.989C69.95,136.284,78.499,128.332,87.416,121.025z"/>
		<path fill="#FCFCFC" d="M117.43,99.657c11.325,18.43,22.651,36.859,33.976,55.289c-5.674,3.485-11.211,7.262-16.592,11.331
			C121.8,149,108.787,131.723,95.773,114.446C102.796,109.135,110.025,104.206,117.43,99.657z"/>
		<path fill="#FCFCFC" d="M179.072,71.634c6.52,20.614,13.039,41.229,19.559,61.843c-5.458,1.708-10.857,3.64-16.184,5.795
			c-6.874-7.824-14.161-15.391-21.846-22.669c4.146,8.915,8.295,17.829,12.441,26.744c-4.994,2.31-9.912,4.824-14.743,7.542
			c-10.624-18.843-21.247-37.685-31.87-56.528c6.305-3.548,12.724-6.83,19.243-9.845c8.478,6.808,16.539,13.949,24.166,21.384
			c-3.644-9.03-7.287-18.061-10.93-27.091C165.55,76.152,172.275,73.76,179.072,71.634z"/>
		<path fill="#FCFCFC" d="M188.904,68.755c6.137-1.674,12.322-3.135,18.544-4.383c12.057-2.398,20.368-2.946,24.723-2.691
			c4.362,0.276,7.72,1.238,10.054,2.776c2.334,1.541,3.812,3.361,4.479,5.419c0.667,2.06,1.166,6.156,1.514,12.286
			c0.432,7.556,0.862,15.11,1.292,22.666c0.329,5.81,0.216,9.712-0.313,11.71c-0.533,1.998-1.557,3.599-3.059,4.824
			c-1.503,1.225-3.377,2.16-5.636,2.836c-2.259,0.678-5.69,1.281-10.291,1.98c-8.091,1.234-16.122,2.932-24.047,5.094
			C200.411,110.433,194.658,89.594,188.904,68.755z M215.699,74.104c2.511,13.994,5.021,27.988,7.531,41.981
			c2.906-0.512,4.625-1.26,5.156-2.329c0.526-1.065,0.479-3.737-0.16-8.014c-1.244-8.304-2.485-16.607-3.729-24.911
			c-0.434-2.905-0.846-4.747-1.232-5.525c-0.39-0.779-1.09-1.289-2.102-1.523C220.152,73.551,218.326,73.64,215.699,74.104z"/>
		<path fill="#FCFCFC" d="M331.566,67.461c-9.433,11.84-18.01,24.109-25.705,36.717c-1.433,7.69-2.863,15.381-4.295,23.072
			c-5.917-1.086-11.872-1.922-17.851-2.507c0.774-7.783,1.549-15.566,2.323-23.349c-3.673-14.214-8.242-28.354-13.705-42.335
			c7.764,0.266,15.52,0.853,23.241,1.761c2.102,12.992,2.703,21.691,2.522,26.083c2.243-6.669,5.648-14.789,10.591-24.226
			C316.367,63.951,324.001,65.545,331.566,67.461z"/>
		<path fill="#FCFCFC" d="M372.865,123.453c-3.001,5.789-5.304,9.795-6.883,12.032c-1.583,2.237-3.77,3.898-6.51,5.048
			c-2.741,1.152-5.813,1.585-9.248,1.363c-3.438-0.222-7.082-1.118-11.031-2.642c-3.75-1.445-6.947-3.165-9.646-5.243
			c-2.698-2.077-4.693-4.449-5.981-7.183c-1.288-2.731-1.812-5.428-1.486-8.107c0.324-2.678,1.348-7.242,3.09-13.688
			c0.965-3.571,1.931-7.141,2.896-10.711c1.699-6.29,3.11-10.689,4.253-13.188c1.141-2.498,3.146-4.527,6.075-6.022
			c2.928-1.494,6.572-2.211,10.909-2.063c4.332,0.148,9.164,1.188,14.382,3.199c4.95,1.909,9.143,4.296,12.522,7.048
			c3.384,2.755,5.696,5.756,6.956,8.905c1.26,3.152,1.444,6.03,0.639,8.618c-0.806,2.59-2.755,6.847-5.829,12.777
			C376.271,116.882,374.567,120.167,372.865,123.453z M360.67,94.441c1.135-2.797,1.636-4.676,1.496-5.639
			c-0.14-0.961-0.922-1.727-2.349-2.278c-1.207-0.466-2.258-0.496-3.137-0.098c-0.881,0.399-1.898,2.166-3.062,5.296
			c-3.521,9.463-7.044,18.927-10.565,28.39c-1.312,3.531-1.944,5.774-1.902,6.73c0.043,0.957,0.701,1.671,1.976,2.162
			c1.304,0.503,2.321,0.364,3.067-0.433c0.743-0.796,1.836-2.961,3.271-6.502C353.201,112.86,356.936,103.65,360.67,94.441z"/>
		<path fill="#FCFCFC" d="M447.402,129.117c-9.624,10.782-19.247,21.564-28.871,32.346c-3.274,3.667-5.73,6.102-7.356,7.317
			c-1.628,1.216-3.882,1.939-6.728,2.25c-2.849,0.311-5.802-0.108-8.901-1.211c-3.103-1.103-6.292-2.885-9.663-5.313
			c-3.733-2.688-6.729-5.45-9.02-8.424c-2.29-2.971-3.717-5.754-4.218-8.429c-0.502-2.673-0.367-5.086,0.466-7.24
			c0.834-2.153,3.035-6.424,6.619-12.809c6.267-11.161,12.532-22.321,18.8-33.482c7.547,4.229,14.932,8.838,22.122,13.829
			c-9.234,13.334-18.47,26.669-27.702,40.004c-1.612,2.329-2.483,3.928-2.618,4.794c-0.136,0.867,0.273,1.634,1.224,2.312
			c1.085,0.775,2.034,0.933,2.858,0.458c0.822-0.473,2.193-2.01,4.105-4.617c9.429-12.851,18.855-25.703,28.283-38.554
			C433.882,117.556,440.758,123.146,447.402,129.117z"/>
		<path fill="#FCFCFC" d="M455.016,136.223c4.573,4.435,9.025,9.061,13.348,13.877c8.632,9.653,13.759,17.054,16.06,21.165
			c2.291,4.131,3.205,8.193,2.771,12.04c-0.436,3.853-3.02,7.271-7.639,10.297c-4.22,2.767-7.587,3.807-10.087,3.197
			c-2.509-0.613-5.438-3.099-8.952-7.287c2.268,4.476,3.233,7.872,3.041,10.053c-0.194,2.185-0.683,3.764-1.424,4.746
			c-0.743,0.982-3.304,2.906-7.677,5.778c-4.764,3.129-9.526,6.257-14.29,9.386c-3.723-5.667-7.649-11.084-11.762-16.248
			c5.604-4.492,11.207-8.983,16.811-13.475c2.709-2.169,4.146-3.818,4.297-4.95c0.152-1.127-0.816-3.002-2.959-5.537
			c-7.415,6.324-14.831,12.647-22.246,18.971c-4.557-5.384-9.32-10.476-14.271-15.275
			C425.027,167.381,440.021,151.802,455.016,136.223z M465.202,163.36c-3.657,3.119-7.313,6.237-10.971,9.355
			c1.818,2.151,3.271,3.53,4.393,4.089c1.121,0.56,2.795-0.044,5.026-1.83c0.927-0.743,1.854-1.486,2.779-2.229
			c1.604-1.284,2.3-2.58,2.07-3.885C468.27,167.555,467.182,165.7,465.202,163.36z"/>
	</g>
</g>
<g>
	<g>
		<path fill="#FCFCFC" d="M158.08,568.236c-11.829,18.098-23.659,36.193-35.488,54.291c-6.349-4.159-12.554-8.624-18.592-13.396
			c9.016-11.477,18.033-22.951,27.052-34.426c-11.026,9.888-22.434,19.416-34.207,28.562c-4.186-3.557-8.284-7.268-12.286-11.131
			c7.508-12.567,15.438-24.814,23.774-36.715c-10.266,9.891-20.534,19.779-30.802,29.668c-5.479-5.706-10.761-11.717-15.821-18.034
			c16.864-13.51,33.728-27.021,50.591-40.529c5.633,7.03,11.629,13.559,17.936,19.583c-2.126,3.36-4.677,7.271-7.632,11.75
			c-2.992,4.727-5.921,9.502-8.787,14.322c8.074-6.305,15.982-12.787,23.721-19.439C144.109,558.417,150.975,563.581,158.08,568.236
			z"/>
		<path fill="#FCFCFC" d="M194.691,587.008c-4.395,21.476-7.633,43.284-9.696,65.331c-8.233-2.654-16.358-5.727-24.341-9.216
			c1.142-3.742,2.302-7.479,3.481-11.206c-2.665-1.182-5.312-2.412-7.942-3.691c-2.145,3.278-4.309,6.547-6.493,9.802
			c-7.937-3.92-15.709-8.269-23.287-13.043c15.252-15.944,29.624-32.577,43.078-49.82
			C177.652,579.739,186.077,583.688,194.691,587.008z M168.25,621.164c1.925-7.188,4.658-15.921,8.27-26.168
			c-7.164,10.365-12.492,17.87-15.555,22.765C163.377,618.938,165.807,620.073,168.25,621.164z"/>
		<path fill="#FCFCFC" d="M249.682,599.521c-1.757,21.536-3.514,43.074-5.27,64.611c-7.335-0.592-14.65-1.491-21.924-2.698
			c-2.693-10.404-4.885-20.838-6.577-31.262c-2.106,9.597-4.216,19.193-6.322,28.789c-6.883-1.499-13.715-3.277-20.479-5.335
			c6.33-20.669,12.658-41.337,18.988-62.006c5.086,1.548,10.225,2.885,15.399,4.012c1.382,10.261,3.297,20.54,5.747,30.794
			c1.57-9.604,3.139-19.207,4.709-28.811C239.171,598.462,244.419,599.097,249.682,599.521z"/>
		<path fill="#FCFCFC" d="M299.396,597.275c3.711,21.29,7.422,42.58,11.133,63.869c-7.267,1.256-14.576,2.202-21.908,2.844
			c-5.215-9.405-9.947-18.962-14.19-28.632c0.372,9.814,0.744,19.632,1.116,29.446c-7.012,0.264-14.033,0.246-21.045-0.05
			c0.922-21.589,1.844-43.178,2.766-64.766c5.272,0.223,10.553,0.234,15.825,0.037c3.904,9.591,8.33,19.065,13.272,28.387
			c-0.895-9.689-1.786-19.379-2.68-29.067C288.943,598.865,294.185,598.175,299.396,597.275z"/>
		<path fill="#FCFCFC" d="M306.882,595.833c10.33-2.197,20.515-5.231,30.441-9.101c1.577,4.027,3.153,8.057,4.73,12.085
			c-4.235,1.65-8.516,3.159-12.832,4.525c1.243,3.905,2.487,7.812,3.73,11.718c4.276-1.354,8.521-2.839,12.723-4.456
			c1.483,3.836,2.967,7.672,4.45,11.508c-4.438,1.708-8.915,3.275-13.43,4.704c1.44,4.528,2.884,9.059,4.324,13.588
			c5.629-1.78,11.203-3.767,16.715-5.956c1.604,4.019,3.207,8.037,4.81,12.056c-13.699,5.443-27.775,9.687-42.062,12.725
			C315.949,638.097,311.415,616.965,306.882,595.833z"/>
		<path fill="#FCFCFC" d="M343.608,584.154c4.165-1.793,8.279-3.737,12.336-5.832c8.104-4.202,13.526-7.312,16.629-8.562
			c3.09-1.264,6.187-1.488,9.384-0.654c3.188,0.838,6.447,3.433,9.703,7.901c2.971,4.079,4.307,7.312,3.943,9.7
			c-0.355,2.382-2.481,5.173-6.452,8.16c4.212-1.743,7.337-2.59,9.426-2.36c2.085,0.228,3.635,0.676,4.634,1.387
			c0.995,0.714,3.038,3.184,6.116,7.415c3.353,4.612,6.705,9.226,10.059,13.836c-6.563,4.789-13.306,9.231-20.198,13.33
			c-3.669-6.177-7.339-12.354-11.008-18.53c-1.773-2.985-3.198-4.639-4.264-4.974c-1.068-0.334-2.959,0.305-5.72,1.836
			c4.725,8.527,9.448,17.056,14.174,25.582c-7.526,4.169-15.218,7.938-23.044,11.31C360.753,623.85,352.181,604.002,343.608,584.154
			z M366.314,585.359c2.329,4.205,4.658,8.41,6.988,12.615c2.156-1.194,3.525-2.296,4.114-3.242c0.593-0.951,0.151-2.656-1.31-5.111
			c-0.607-1.021-1.216-2.044-1.821-3.066c-1.052-1.767-2.13-2.691-3.229-2.792C369.957,583.664,368.387,584.211,366.314,585.359z"/>
		<path fill="#FCFCFC" d="M433.115,540.277c-4.483,5.499-9.171,10.714-14.04,15.643c-1.138-1.128-2.274-2.257-3.411-3.385
			c-1.592-1.579-2.786-2.402-3.578-2.477c-0.794-0.072-1.607,0.307-2.447,1.131c-0.914,0.896-1.321,1.86-1.229,2.919
			c0.094,1.054,0.711,2.196,1.864,3.425c1.479,1.576,2.874,2.505,4.187,2.765c1.287,0.283,3.723-0.2,7.307-1.623
			c10.288-4.094,17.423-7.005,21.426-7.328c3.996-0.342,8.501,1.378,13.466,5.348c3.604,2.884,5.734,5.677,6.329,8.407
			c0.598,2.724-0.138,6.519-2.352,11.268c-2.215,4.745-5.672,9.566-10.372,14.229c-5.159,5.117-10.312,8.613-15.219,10.589
			c-4.916,1.973-8.801,2.28-11.616,1.149c-2.822-1.132-5.702-3.646-8.688-7.479c-0.87-1.115-1.74-2.231-2.611-3.349
			c5.861-4.59,11.553-9.493,17.051-14.711c1.807,1.911,3.611,3.823,5.416,5.734c1.668,1.767,2.983,2.674,3.951,2.709
			c0.963,0.037,2.072-0.544,3.305-1.756c1.231-1.213,1.828-2.443,1.792-3.662c-0.034-1.22-0.677-2.436-1.918-3.649
			c-2.729-2.67-5.052-3.856-6.957-3.604c-1.937,0.271-6.038,1.633-12.271,3.608c-6.251,1.941-10.47,2.8-12.7,3.022
			c-2.23,0.213-4.508-0.188-6.812-1.19c-2.308-1.003-4.495-2.89-6.604-5.612c-3.041-3.931-4.636-7.285-4.86-10.04
			c-0.223-2.762,0.558-5.691,2.271-8.87c1.713-3.182,4.279-6.35,7.704-9.683c3.741-3.646,7.318-6.426,10.896-8.297
			c3.57-1.871,6.571-2.691,9.038-2.297c2.464,0.396,5.706,2.192,9.7,5.445C431.791,539.197,432.453,539.737,433.115,540.277z"/>
	</g>
</g>
<rect x="409.071" y="468.28" transform="matrix(-0.0925 0.9957 -0.9957 -0.0925 995.4962 107.4535)" fill="none" width="79.421" height="78.194"/>
<text transform="matrix(0.6691 -0.7431 0.7431 0.6691 446.1582 547.0176)" fill="#FCFCFC" font-family="'Impact'" font-size="39.9978">©</text>
<g display="none">
	
		<ellipse transform="matrix(-0.443 -0.8965 0.8965 -0.443 -9.4773 803.647)" display="inline" fill="#FCFCFC" cx="244.908" cy="404.768" rx="15.711" ry="32.805"/>
	<path display="inline" fill="#4D4D4D" d="M237.879,405.838c-0.899,0.541-1.416,1.303-1.553,2.287
		c-0.137,0.984,0.162,2.088,0.897,3.311c0.735,1.226,1.57,2.007,2.504,2.348c0.934,0.339,1.85,0.241,2.749-0.3
		c0.898-0.541,1.412-1.302,1.541-2.28c0.13-0.979-0.173-2.082-0.909-3.304c-0.733-1.221-1.562-2.002-2.49-2.351
		C239.69,405.202,238.776,405.298,237.879,405.838z"/>
	<path display="inline" fill="#4D4D4D" d="M231.92,381.244c-18.433,11.084-26.703,31.168-18.471,44.857
		c4.183,6.958,20.509,21.418,48.283,4.717c4.625-2.782,11.856-9.802,11.856-9.802l22.776-3.44l-15.584-7.767
		c0,0,3.613-16.881-0.577-23.851C271.973,372.271,250.354,370.159,231.92,381.244z M234.099,420.439l-2.173,1.308l-5.065-5.455
		l-1.614-1.816l0.832,2.251l2.46,7.059l-2.106,1.267l-9.125-8.205l2.409-1.446l4.995,5.06l1.264,1.395l-0.573-1.661l-2.401-6.768
		l2.393-1.438l4.85,5.145l1.283,1.385l-0.531-1.645l-2.199-6.932l2.311-1.39L234.099,420.439z M246.427,411.998
		c-0.312,1.338-1.244,2.474-2.795,3.406c-1.551,0.932-2.992,1.225-4.319,0.872c-1.723-0.376-3.17-1.537-4.341-3.485
		c-1.196-1.988-1.543-3.812-1.043-5.47c0.312-1.337,1.245-2.475,2.795-3.405c1.551-0.934,2.992-1.225,4.319-0.873
		c1.694,0.339,3.139,1.501,4.335,3.49C246.548,408.483,246.898,410.304,246.427,411.998z M258.159,404.943
		c-0.312,1.337-1.244,2.473-2.795,3.404c-1.551,0.935-2.992,1.226-4.319,0.872c-1.722-0.373-3.169-1.537-4.341-3.483
		c-1.195-1.989-1.543-3.813-1.043-5.471c0.312-1.338,1.244-2.473,2.795-3.405c1.551-0.934,2.992-1.225,4.319-0.872
		c1.694,0.338,3.14,1.501,4.335,3.489C258.281,401.428,258.631,403.249,258.159,404.943z M264.98,389.889l-6.285,3.779l1.511,2.513
		l5.027-3.022l1.513,2.515l-5.028,3.024l2.268,3.77l-2.513,1.512l-6.856-11.198l8.799-5.291L264.98,389.889z M274.089,396.678
		l-2.203,1.324l-1.28-2.127l2.203-1.325L274.089,396.678z M269.318,388.562l2.586,5.72l-1.098,0.66l-4.002-4.868l-1.322-2.198
		l2.514-1.512L269.318,388.562z"/>
	<path display="inline" fill="#4D4D4D" d="M249.611,398.782c-0.898,0.541-1.416,1.304-1.553,2.288
		c-0.137,0.983,0.162,2.089,0.897,3.312c0.735,1.225,1.57,2.006,2.504,2.347c0.934,0.34,1.85,0.24,2.749-0.301
		c0.899-0.54,1.412-1.3,1.542-2.279c0.129-0.98-0.173-2.082-0.909-3.306c-0.732-1.218-1.562-2-2.49-2.348
		C251.423,398.146,250.508,398.242,249.611,398.782z"/>
</g>
</svg>
