<?xml version="1.0" encoding="utf-8"?>
<!-- Generator: Adobe Illustrator 16.0.0, SVG Export Plug-In . SVG Version: 6.00 Build 0)  -->
<!DOCTYPE svg PUBLIC "-//W3C//DTD SVG 1.1//EN" "http://www.w3.org/Graphics/SVG/1.1/DTD/svg11.dtd">
<svg version="1.1" id="Layer_1" xmlns="http://www.w3.org/2000/svg" xmlns:xlink="http://www.w3.org/1999/xlink" x="0px" y="0px"
 viewBox="0 0 800 800" enable-background="new 0 0 800 800" xml:space="preserve">
<circle fill="none" stroke="#F2634B" stroke-width="60" stroke-miterlimit="10" cx="400.129" cy="401.941" r="363.077"/>
<path fill="#F2634B" d="M557.254,335.93c43.569,12.574,87.153-44.406,64.518-124.021c-22.623-79.603-105.586-68.716-119.823-58.655
	c0,0-82.116-34.358-130.298,3.775c0,0-57.816-56.557-125.696,69.129c0,0-23.884,125.696,75.416,104.324
	c57.818-21.372-20.11-82.953,15.085-128.209c0,0,10.06,64.105,35.194,85.477c0,0-35.194,40.219,11.311,66.617
	c0,0-17.598,64.104-89.238,99.299c-71.642,35.194-46.518,103.076-50.28,114.386c0,0-91.751,41.481-87.978-52.793
	c0,0-23.885,123.183,104.325,99.298c0,0-3.015,11.31,8.542,12.572c11.568,1.262,149.826,0,149.826,0s43.992-6.286,0-49.02
	c0,0,23.258-17.599,22.623-27.658l0.012,72.901c0,0,54.031,5.664,63.456-0.625c9.426-6.287,10.062-25.135-11.309-30.171
	c-21.374-5.035,20.354-202.173-8.977-231.507c0,0,37.249-23.448,20.489-67.019c0,0,35.195-41.895,24.297-104.749
	C568.152,240.405,502.797,309.122,557.254,335.93z"/>
</svg>
