<svg id="Layer_1" data-name="Layer 1" xmlns="http://www.w3.org/2000/svg" viewBox="0 0 1320.15 193.32"><defs><style>.cls-1{fill:#cd2028;}</style></defs><title>vsp-logo-red</title><path class="cls-1" d="M34.09,134.25l70-60.46a3.69,3.69,0,0,1,5,.21l31.35,32a3.62,3.62,0,0,0,5,.16L233.06,27.4a29,29,0,0,0-13.17-6.23c-8.37-1.59-44.1-2.85-80.93-2.85S66.4,19.58,58,21.17a28.47,28.47,0,0,0-14.24,7.19c-8.68,8.06-9.31,21.85-10.62,33.49-1.59,21.05-1.28,39.88,0,62.93C33.49,128.69,33.77,131.72,34.09,134.25Z"/><path class="cls-1" d="M241.71,42.6l-96,86.31a5,5,0,0,1-6.95-.22L108.62,97.94a4.46,4.46,0,0,0-6.1-.25L39.29,152.33A21.5,21.5,0,0,0,43,157.42,27.77,27.77,0,0,0,57.44,165c8.54,1.75,22.43,2.42,63.1,3.18,33.92.54,63.81,0,99-2.7a28,28,0,0,0,14.9-7.61c2.6-2.58,4.1-4.93,5.86-9.37,2.84-7,3.84-13.8,5.1-33,.33-5.78.33-38.58,0-44.36C244.84,62.56,244.6,52.29,241.71,42.6Z"/><path class="cls-1" d="M300.83,53.66l19.2,61,19.08-61h25.08L335,138.26H304.91l-29.28-84.6Z"/><path class="cls-1" d="M369.77,61.28A11.08,11.08,0,0,1,366,52.7a11.4,11.4,0,0,1,3.78-8.76q3.78-3.48,10-3.48a14,14,0,0,1,9.9,3.48,11.4,11.4,0,0,1,3.78,8.76,11.08,11.08,0,0,1-3.78,8.58,14.19,14.19,0,0,1-9.9,3.42Q373.55,64.7,369.77,61.28Zm21.66,9.66v67.32H367.91V70.94Z"/><path class="cls-1" d="M401.21,86.3a28.59,28.59,0,0,1,10.38-12,26.71,26.71,0,0,1,14.64-4.2,24.37,24.37,0,0,1,11.58,2.7,20.32,20.32,0,0,1,8,7.38V49.46h23.64v88.8H445.79V128.9a20,20,0,0,1-7.8,7.44,24.36,24.36,0,0,1-11.88,2.76,26.41,26.41,0,0,1-14.58-4.2,28.67,28.67,0,0,1-10.32-12.06,41.77,41.77,0,0,1-3.78-18.3A41.38,41.38,0,0,1,401.21,86.3Zm41.16,8a12.17,12.17,0,0,0-17.46-.06q-3.48,3.66-3.48,10.26t3.48,10.26a11.4,11.4,0,0,0,8.76,3.78,11.54,11.54,0,0,0,8.7-3.72q3.54-3.72,3.54-10.32T442.37,94.34Z"/><path class="cls-1" d="M543.23,109.22H498.59q.48,5.64,3.18,8.34a9.34,9.34,0,0,0,6.9,2.7,8.65,8.65,0,0,0,8.4-5.28h25.08a29.35,29.35,0,0,1-6.06,12.42A31.25,31.25,0,0,1,524.75,136a36,36,0,0,1-15.12,3.12,36.52,36.52,0,0,1-17.7-4.2,30.16,30.16,0,0,1-12.12-12,36.89,36.89,0,0,1-4.38-18.36,37,37,0,0,1,4.32-18.3A29.87,29.87,0,0,1,491.81,74.3a40,40,0,0,1,35.46-.12,29.39,29.39,0,0,1,12,11.7,35.52,35.52,0,0,1,4.32,17.82A42.64,42.64,0,0,1,543.23,109.22ZM519.59,98.66q0-4.8-2.88-7.38a11.52,11.52,0,0,0-14.46-.06,11.9,11.9,0,0,0-3.54,7.44Z"/><path class="cls-1" d="M562.85,134.9a31,31,0,0,1-12.54-12,35.63,35.63,0,0,1-4.56-18.36,35.12,35.12,0,0,1,4.62-18.24,31.29,31.29,0,0,1,12.6-12,40.93,40.93,0,0,1,36.12,0,31.36,31.36,0,0,1,12.6,12,35.22,35.22,0,0,1,4.62,18.24,35.54,35.54,0,0,1-4.62,18.3A31.21,31.21,0,0,1,599,134.9a41.06,41.06,0,0,1-36.18,0Zm26.22-19.74c2.23-2.44,3.36-6,3.36-10.62s-1.1-8.06-3.3-10.5a10.52,10.52,0,0,0-8.1-3.66A10.31,10.31,0,0,0,573,94q-3.24,3.66-3.24,10.5t3.12,10.62a10.07,10.07,0,0,0,8,3.66A10.68,10.68,0,0,0,589.07,115.16Z"/><path class="cls-1" d="M650.5,132.08q-9.48-7-10.2-20.1h25.08q.36,4.56,2.64,6.6a9.55,9.55,0,0,0,11.22.42,5.49,5.49,0,0,0,2.1-4.62,6.36,6.36,0,0,0-3.48-5.76,61.33,61.33,0,0,0-11.28-4.56,101.59,101.59,0,0,1-13.38-5.34,25.67,25.67,0,0,1-8.88-7.56q-3.78-5-3.78-13a23.73,23.73,0,0,1,4.08-14,25.25,25.25,0,0,1,11.28-8.82,42.09,42.09,0,0,1,16.32-3q14.76,0,23.58,6.9t9.42,19.38H679.66q-.12-4-2.34-5.88a8.4,8.4,0,0,0-5.7-1.92,6.1,6.1,0,0,0-4.32,1.56,5.92,5.92,0,0,0-1.68,4.56,5.48,5.48,0,0,0,1.86,4.14,17.07,17.07,0,0,0,4.62,3q2.76,1.26,8.16,3.18a100.26,100.26,0,0,1,13.26,5.46,27.09,27.09,0,0,1,9,7.56q3.78,4.86,3.78,12.3a24.9,24.9,0,0,1-3.78,13.56,26,26,0,0,1-10.92,9.48,38.1,38.1,0,0,1-16.86,3.48Q660,139.1,650.5,132.08Z"/><path class="cls-1" d="M776.14,78.08Q783,85.82,783,99v39.24H759.46V102.14q0-5.76-3-9.06a10.33,10.33,0,0,0-8-3.3,10.63,10.63,0,0,0-8.28,3.3q-3,3.3-3,9.06v36.12H713.62V70.94h23.52v9.6a23.21,23.21,0,0,1,8.4-7.38,25.33,25.33,0,0,1,12.12-2.82Q769.3,70.34,776.14,78.08Z"/><path class="cls-1" d="M794.2,61.28a11.08,11.08,0,0,1-3.78-8.58,11.4,11.4,0,0,1,3.78-8.76q3.78-3.48,10-3.48a14,14,0,0,1,9.9,3.48,11.4,11.4,0,0,1,3.78,8.76,11.08,11.08,0,0,1-3.78,8.58,14.19,14.19,0,0,1-9.9,3.42Q798,64.7,794.2,61.28Zm21.66,9.66v67.32H792.34V70.94Z"/><path class="cls-1" d="M857,72.86A24.36,24.36,0,0,1,868.9,70.1a26.41,26.41,0,0,1,14.58,4.2,28.74,28.74,0,0,1,10.32,12,41.38,41.38,0,0,1,3.78,18.24,41.77,41.77,0,0,1-3.78,18.3,28.67,28.67,0,0,1-10.32,12.06,26.41,26.41,0,0,1-14.58,4.2,24,24,0,0,1-11.82-2.76,21,21,0,0,1-7.86-7.44v41.52H825.7V70.94h23.52V80.3A20,20,0,0,1,857,72.86Zm13.14,21.42a12.1,12.1,0,0,0-17.4.06q-3.54,3.72-3.54,10.2t3.54,10.32a12,12,0,0,0,17.4-.06q3.54-3.78,3.54-10.26T870.16,94.28Z"/><path class="cls-1" d="M967.66,109.22H923q.48,5.64,3.18,8.34a9.34,9.34,0,0,0,6.9,2.7,8.65,8.65,0,0,0,8.4-5.28h25.08a29.35,29.35,0,0,1-6.06,12.42A31.25,31.25,0,0,1,949.18,136a36,36,0,0,1-15.12,3.12,36.52,36.52,0,0,1-17.7-4.2,30.16,30.16,0,0,1-12.12-12,36.89,36.89,0,0,1-4.38-18.36,37,37,0,0,1,4.32-18.3A29.87,29.87,0,0,1,916.24,74.3a40,40,0,0,1,35.46-.12,29.39,29.39,0,0,1,12,11.7A35.52,35.52,0,0,1,968,103.7,42.64,42.64,0,0,1,967.66,109.22ZM944,98.66q0-4.8-2.88-7.38a11.52,11.52,0,0,0-14.46-.06,11.9,11.9,0,0,0-3.54,7.44Z"/><path class="cls-1" d="M1007.14,73.82a22.67,22.67,0,0,1,12.12-3.48V95.42h-6.6q-7.68,0-11.4,3t-3.72,10.44v29.4H974V70.94h23.52V83.18A31.44,31.44,0,0,1,1007.14,73.82Z"/><path class="cls-1" d="M1107.88,95.84a25.57,25.57,0,0,1-10.68,10.08q-7.14,3.78-17.46,3.78H1068.1v28.56h-23.52V53.66h35.16q10.2,0,17.34,3.6a24.75,24.75,0,0,1,10.74,10,29.2,29.2,0,0,1,3.6,14.64A28,28,0,0,1,1107.88,95.84ZM1085,88.64a9.3,9.3,0,0,0,2.4-6.78A9.47,9.47,0,0,0,1085,75q-2.4-2.46-7.56-2.46h-9.36V91.1h9.36Q1082.62,91.1,1085,88.64Z"/><path class="cls-1" d="M1150.42,73.82a22.67,22.67,0,0,1,12.12-3.48V95.42h-6.6c-5.12,0-8.93,1-11.4,3s-3.72,5.48-3.72,10.44v29.4H1117.3V70.94h23.52V83.18A31.44,31.44,0,0,1,1150.42,73.82Z"/><path class="cls-1" d="M1180.6,134.9a30.83,30.83,0,0,1-12.54-12,35.63,35.63,0,0,1-4.56-18.36,35,35,0,0,1,4.62-18.24,31.27,31.27,0,0,1,12.59-12,40.93,40.93,0,0,1,36.12,0,31.45,31.45,0,0,1,12.61,12,35.22,35.22,0,0,1,4.62,18.24,35.54,35.54,0,0,1-4.62,18.3,31.27,31.27,0,0,1-12.66,12.06,41.06,41.06,0,0,1-36.18,0Zm26.22-19.74q3.35-3.66,3.35-10.62T1206.88,94a10.52,10.52,0,0,0-8.1-3.66,10.29,10.29,0,0,0-8,3.66q-3.24,3.66-3.24,10.5c0,4.64,1,8.18,3.12,10.62a10.05,10.05,0,0,0,8,3.66A10.7,10.7,0,0,0,1206.82,115.16Z"/></svg>