<svg id="Layer_1" xmlns="http://www.w3.org/2000/svg" viewBox="0 0 145 106.8"><style>.st0{fill:#332a86}.st1{fill:#fff}</style><path class="st0" d="M78.2 65.6v13.9l15.6-9.3c2.3.3 4.6.5 7 .5 24.4 0 44.2-15.8 44.2-35.3C145 15.8 125.2 0 100.8 0 76.4 0 56.7 15.8 56.7 35.3c0 12.9 8.6 24.1 21.5 30.3z"/><path class="st1" d="M91.8 44.5h-2.7V33.7l.2-5.1-5.6 15.8h-2.5l-5.6-15.8.2 5.1v10.7H73V25.9h4.5l3.7 10.7 1.3 4.4h.1l1.3-4.4 3.7-10.7H92v18.6zm12.5-7.5h-4v7.4h-3V25.9h7.5c2 0 3.6.5 4.7 1.5 1.2 1 1.7 2.3 1.7 4.1 0 1.3-.3 2.4-1 3.3-.7.9-1.7 1.5-2.9 1.9l5 7.7H109l-4.7-7.4zm-4-2.4h4.3c1.2 0 2.1-.2 2.7-.7.6-.5.9-1.3.9-2.3 0-1-.3-1.8-.9-2.3-.6-.5-1.5-.7-2.7-.7h-4.3v6zm26.5-8c1.2.6 2.2 1.6 3 2.8l-2.3 2c-.5-1.1-1.2-1.9-2-2.4s-1.8-.8-3.1-.8-2.3.3-3 .8c-.7.5-1.1 1.2-1.1 2 0 .7.3 1.3 1 1.8.7.4 1.9.8 3.7 1.1 1.7.3 3 .7 4 1.1 1 .5 1.7 1 2.1 1.7.4.7.7 1.5.7 2.5 0 1.1-.3 2-.9 2.9-.6.8-1.5 1.5-2.6 1.9-1.1.4-2.4.7-3.9.7-3.8 0-6.4-1.3-8-3.8l2.1-2.1c.6 1.1 1.4 1.9 2.3 2.5.9.5 2.1.8 3.5.8 1.3 0 2.4-.2 3.1-.7.8-.5 1.1-1.1 1.1-1.9 0-.7-.3-1.2-1-1.6-.7-.4-1.9-.8-3.6-1.1-1.7-.3-3.1-.7-4.1-1.2-1-.5-1.7-1-2.2-1.7-.5-.7-.7-1.5-.7-2.5s.3-2 .9-2.9c.6-.9 1.4-1.5 2.5-2s2.4-.8 3.8-.8c2.1 0 3.5.3 4.7.9z"/><path class="st0" d="M27.9 78.9c9.4 9.4 18.3 8.3 21.8 6.8 3.4-1.4 5.1-3.1 6.6-4.6 1.5-1.5 3.1-1.9 4.8-.4 1.8 1.6 12.9 12.9 15 14.9 2.1 2.1 1.5 4.1-.1 5.3-4.2 3.2-13.5 7.6-23.6 4.9-9.9-2.7-20-8.8-31.4-20.2C9.6 74.3 3.5 64.3.8 54.3c-2.7-10.1 1.7-19.4 4.9-23.6 1.2-1.6 3.3-2.2 5.3-.1 2.1 2.1 13.4 13.2 14.9 15 1.6 1.8 1.1 3.4-.4 4.8-1.5 1.5-3.2 3.2-4.6 6.6-1.3 3.7-2.5 12.5 7 21.9z"/></svg>