<svg id="Layer_1" xmlns="http://www.w3.org/2000/svg" viewBox="0 0 174 82.8"><style>.st0{fill:#332a86}</style><path class="st0" d="M134.3 34.7c.4.4.9.6 1.5.6.5 0 1.1-.2 1.5-.6.8-.8.8-2.1 0-2.9-6.5-6.6-15.2-10.2-24.4-10.3-9.2-.1-18 3.5-24.5 10-.8.8-.8 2.1 0 2.9.8.8 2.1.8 2.9 0 5.8-5.7 13.5-8.8 21.6-8.8 8 .1 15.7 3.4 21.4 9.1zm-32 11c-.8.8-.8 2.1 0 2.9.8.8 2.1.8 2.9 0 2-2 4.6-3 7.4-3 2.8 0 5.4 1.1 7.4 3.1.4.4.9.6 1.5.6.5 0 1.1-.2 1.5-.6.8-.8.8-2.1 0-2.9-2.8-2.8-6.4-4.3-10.3-4.4-3.9.1-7.6 1.6-10.4 4.3z"/><path class="st0" d="M98 41.3c8.2-8.1 21.4-8 29.5.2.4.4.9.6 1.5.6.5 0 1.1-.2 1.5-.6.8-.8.8-2.1 0-2.9-4.7-4.8-10.9-7.4-17.6-7.4-6.7 0-13 2.5-17.7 7.2-.8.8-.8 2.1 0 2.9.6.8 2 .8 2.8 0z"/><path class="st0" d="M171 72.7h-7.1l.4-69.5c0-1.6-1.3-2.9-2.9-2.9L63.6-.3C62-.3 60.7 1 60.7 2.6L60.3 72H54c-1.7 0-3.1 1.4-3.1 3v4.3c0 1.7 1.4 3.1 3 3.1l116.9.7c1.7 0 3.1-1.4 3.1-3v-4.3c.1-1.7-1.2-3.1-2.9-3.1zm-45.7 6.4l-25.8-.2v-3.5l25.8.2v3.5zm32.3-6.6l-90.5-.6.4-65.1 90.5.6-.4 65.1zm3.6 7.1h-3.4v-3.4h3.4v3.4zm5.5.1h-3.4v-3.4h3.4v3.4z"/><ellipse transform="matrix(.00639 -1 1 .00639 56.587 167.562)" class="st0" cx="112.6" cy="55.3" rx="3.5" ry="3.5"/><path class="st0" d="M32.2 19.6l-28.5-.1C1.8 19.5.3 21 .3 22.9L0 78.7c0 1.9 1.5 3.4 3.4 3.4l28.4.2c1.9 0 3.4-1.5 3.4-3.4l.3-55.9c0-1.8-1.5-3.4-3.3-3.4zm-17 1.8h5.3c.2 0 .4.2.4.4s-.2.4-.4.4h-5.3c-.2 0-.4-.2-.4-.4s.1-.4.4-.4zM17.3 80c-1.2 0-2.1-1-2.1-2.1 0-1.2 1-2.1 2.1-2.1 1.2 0 2.1 1 2.1 2.1s-1 2.1-2.1 2.1zm14.8-6l-29-.2.3-49.3 29 .2-.3 49.3z"/></svg>