<svg id="Layer_1" xmlns="http://www.w3.org/2000/svg" viewBox="0 0 145 106.8"><style>.st0{fill:#332a86}.st1{fill:#fff}</style><path class="st0" d="M78.2 65.6v13.9l15.6-9.3c2.3.3 4.6.5 7 .5 24.4 0 44.2-15.8 44.2-35.3C145 15.8 125.2 0 100.8 0 76.4 0 56.7 15.8 56.7 35.3c0 12.9 8.6 24.1 21.5 30.3z"/><path class="st1" d="M81.1 44.5h-3.5L70.7 26h3.2l4.3 12.3 1.1 3.7 1.1-3.6 4.3-12.3H88l-6.9 18.4zm22.3-1.1c-1.4.9-3 1.3-4.8 1.3-1.8 0-3.3-.4-4.6-1.2-1.3-.8-2.3-1.9-3-3.3-.7-1.4-1.1-3.1-1.1-5.1 0-1.9.4-3.6 1.1-5.1.7-1.4 1.7-2.5 3-3.3 1.3-.8 2.8-1.1 4.6-1.1 1.9 0 3.4.4 4.7 1.1 1.3.8 2.2 1.9 2.7 3.4l-2.8 1.3c-.4-1.1-.9-1.9-1.6-2.4-.7-.5-1.6-.8-2.8-.8-1.7 0-3.1.6-4.2 1.8-1 1.2-1.6 2.9-1.6 5.1 0 2.2.5 3.9 1.5 5.1 1 1.2 2.4 1.8 4.1 1.8 1.2 0 2.2-.3 3-.9.8-.6 1.4-1.5 1.8-2.6l2.9 1c-.6 1.7-1.6 3-2.9 3.9zm19-16.6c1.3.8 2.3 1.9 3 3.3.7 1.4 1.1 3.1 1.1 5.1 0 1.9-.4 3.6-1.1 5.1-.7 1.4-1.7 2.5-3 3.3-1.3.8-2.9 1.2-4.6 1.2s-3.3-.4-4.6-1.2c-1.3-.8-2.3-1.9-3-3.3-.7-1.4-1.1-3.1-1.1-5.1 0-1.9.4-3.6 1.1-5.1.7-1.4 1.7-2.5 3-3.3 1.3-.8 2.9-1.1 4.6-1.1s3.3.3 4.6 1.1zm-8.7 3.3c-1 1.2-1.5 2.9-1.5 5.1 0 2.2.5 3.9 1.5 5.1 1 1.2 2.4 1.8 4.1 1.8 1.8 0 3.1-.6 4.1-1.8 1-1.2 1.5-2.9 1.5-5.1 0-2.2-.5-3.9-1.5-5.1-1-1.2-2.4-1.8-4.1-1.8-1.8 0-3.1.6-4.1 1.8z"/><path class="st0" d="M27.9 78.9c9.4 9.4 18.3 8.3 21.8 6.8 3.4-1.4 5.1-3.1 6.6-4.6 1.5-1.5 3.1-1.9 4.8-.4 1.8 1.6 12.9 12.9 15 14.9 2.1 2.1 1.5 4.1-.1 5.3-4.2 3.2-13.5 7.6-23.6 4.9-9.9-2.7-20-8.8-31.4-20.2C9.6 74.3 3.5 64.3.8 54.3c-2.7-10.1 1.7-19.4 4.9-23.6 1.2-1.6 3.3-2.2 5.3-.1 2.1 2.1 13.4 13.2 14.9 15 1.6 1.8 1.1 3.4-.4 4.8-1.5 1.5-3.2 3.2-4.6 6.6-1.3 3.7-2.5 12.5 7 21.9z"/></svg>