<svg id="Layer_1" xmlns="http://www.w3.org/2000/svg" viewBox="0 0 180 90"><style>.st0{fill:#fff}</style><path class="st0" d="M39.3 68.6s-2.1-2.2-5.8-2.2c-3.8 0-15.1 3.9-15.1 3.9s3.8-5.7 1.9-7.6c-1.8-1.8-5.4-4.5-8.8-7.1C6.2 51.4 1 47.3 1 47.3s1.7-.5 3.5-1.3c2.1-.9 1.1-2.5.7-4.1-.4-2-3-10.8-3-10.8s9.3 3.1 11.2 2.6 3.3-6.3 3.3-6.3 6.3 9.1 9.5 11c.5.3 1.7.3 1.7-1.1 0-2.3-1.2-7.1-2.3-11.6-1.3-5.4-2.3-10.4-2.3-10.4s3.5 2.5 5.7 3.7c.6.3 1.6.6 2.5-.4 2.9-2.9 7.7-14.5 7.7-14.5v64.5M60 3.8h5.3c3.7 0 5.5 1.4 5.5 4.5 0 2.9-1.8 3.7-3 4.2v.1c1.4.3 3.5 1.3 3.5 4.4 0 3.3-2.4 5.2-5.7 5.2H60V3.8m3.2 7.6h1.7c1.6 0 2.6-1.2 2.6-2.7 0-1.6-1.1-2.5-2.7-2.5h-1.6v5.2zm0 8.1H65c1.8 0 2.8-1.1 2.8-2.8 0-1.6-.8-2.8-2.9-2.8h-1.8v5.6zm9.7-15.7h9.6v2.7h-6.2v4.8h5.9V14h-5.9v5.3h6.5V22h-9.9V3.8M74.4 30h-.1l-4.6 15.2h-2.3L63 30h-.1v15.2h-3V27h5l3.8 13.6L72.6 27h4.8v18.2h-3V30m15.3 10.8h-6.3l-1.3 4.4h-3.3L84.9 27h3.7l5.9 18.2H91l-1.3-4.4m-.7-2.5l-2.3-8.6h-.1l-2.5 8.6H89zM95.8 27h4l6.1 14.3V27h3v18.2h-4l-6-14.2v14.2h-3.1V27m25.3 13.8h-6.3l-1.3 4.4h-3.3l6.2-18.2h3.7l5.9 18.2h-3.5l-1.4-4.4m-.7-2.5l-2.3-8.6h-.1l-2.5 8.6h4.9zm13.3-3.3h5.9v9.5c-.9.5-2.5.9-4.9.9-5.9 0-9-4-9-9.4s3.1-9.4 9-9.4c2.1 0 3.7.5 4.5.8l-.2 3c-1.1-.6-2.5-1.1-4.2-1.1-3.5 0-5.4 2.9-5.4 6.7 0 4.1 1.8 6.7 5.3 6.7.8 0 1.5-.1 1.9-.4v-4.9h-2.8V35m8.2-8h9.6v2.7h-6.2v4.8h5.9v2.7h-5.9v5.3h6.5v2.7H142V27m12.3 0h4.7c5.7 0 8.8 3.1 8.8 9.1 0 6.2-3.7 9.1-8.8 9.1h-4.7V27m3.4 15.7h1.1c3.7 0 5.4-2.5 5.4-6.6s-1.7-6.6-5.4-6.6h-1.1v13.2zM71.6 68.1c-.7.4-2.3.6-4 .6-5.5 0-8.4-4-8.4-9.4 0-5.3 2.8-9.4 8.3-9.4 1.8 0 3.4.5 4 .8l-.2 3c-.7-.4-1.8-1-3.5-1-2.8 0-5.2 1.9-5.2 6.6s2.4 6.6 5.2 6.6c1.6 0 2.7-.4 3.5-.9l.3 3.1m7.8-18.2c3.8 0 7.3 2.8 7.3 9.4s-3.5 9.4-7.3 9.4-7.3-2.8-7.3-9.4 3.5-9.4 7.3-9.4m0 16.3c2.1 0 3.8-1.8 3.8-6.9s-1.7-6.9-3.8-6.9-3.8 1.8-3.8 6.9 1.7 6.9 3.8 6.9zm23.4-13l-4.6 15.2h-2.4l-4.4-15.2v15.2h-3V50.2h5l3.8 13.6 3.9-13.6h4.8v18.2h-3.1V53.2m5.6-3h5.2c3.7 0 5.7 2.1 5.7 5.5 0 3.5-2 5.6-5.7 5.6h-1.9v7.1h-3.3V50.2m4.7 8.5c2.1 0 3-1 3-3s-.9-3-3-3h-1.3v6h1.3zm15.5 5.3h-6.3l-1.3 4.4h-3.3l6.2-18.2h3.7l5.9 18.2H130l-1.4-4.4m-.7-2.5l-2.3-8.6h-.1l-2.5 8.6h4.9zm6.7-11.3h4l6 14.3h.1V50.2h3v18.2h-3.9l-6.1-14.2h-.1v14.2h-3V50.2m15.9 0h3.3v18.2h-3.3zm6.1 0h9.6v2.7h-6.3v4.8h5.9v2.7h-5.9v5.3h6.5v2.7h-9.8V50.2m12 14.7c.6.4 2.1 1.1 3.9 1.1 1.5 0 2.8-.8 2.8-2.6 0-1.3-.8-1.9-2.4-2.8l-1.7-.9c-1.8-1-3-2.4-3-4.8 0-3.3 2.7-4.9 5.7-4.9 1.9 0 3.3.5 3.8.6l-.1 2.8c-.8-.3-1.9-.8-3.4-.8-1.7 0-2.5.9-2.5 2.1 0 1.3.9 1.9 1.9 2.5l2 1.1c2.1 1.2 3.2 2.3 3.2 4.9 0 3.7-2.6 5.5-6.2 5.5-1.8 0-3.3-.3-4.2-.8l.2-3M54.4 60.5c.2.4.4 1.5.4 2.5 0 3.5-2.6 5.4-6 5.4s-6-1.8-6-5.3c0-1.2.4-2.2.5-2.6l1.9.1c-.2.4-.6 1.1-.6 2.2 0 1.8 1.2 3.3 4.2 3.3s4.2-1.6 4.2-3.3c0-1.1-.3-1.7-.6-2.2l2-.1m-2.6-7.4v4l2.8.8V60l-11.7-3.9v-2.3l11.7-3.7v2.2l-2.8.8m-1.7.5l-5.4 1.5 5.4 1.6v-3.1zm-7.2-3.9v-2.6l9.2-3.9h-9.2v-1.9h11.7v2.5l-9.1 3.9h9.1v2H42.9m8.9-15.9v4l2.8.8v2.1l-11.7-3.9v-2.3l11.7-3.7V33l-2.8.8m-1.7.5l-5.4 1.5 5.4 1.6v-3.1zm-7.2-4v-3c0-3.7 2-5.6 5.9-5.6 4 0 5.9 2.3 5.9 5.6v3H42.9M53 28.2v-.7c0-2.4-1.6-3.5-4.2-3.5s-4.2 1.1-4.2 3.5v.7H53zm-1.2-12.8v4l2.8.8v2.1l-11.7-3.9v-2.3l11.7-3.7v2.2l-2.8.8m-1.7.4l-5.4 1.5 5.4 1.6v-3.1zM42 11l4.2 1.3v1.6L42 13v-2m10.3-.8c.3-.4.7-1.3.7-2.5 0-.9-.5-1.7-1.7-1.7-.8 0-1.2.5-1.8 1.6l-.5 1c-.6 1.1-1.6 1.9-3 1.9-2.1 0-3.2-1.7-3.2-3.7 0-1.3.4-2.1.4-2.5l1.8.1c-.2.5-.5 1.2-.5 2.2 0 1.1.6 1.6 1.3 1.6.8 0 1.2-.6 1.6-1.3l.7-1.3c.8-1.3 1.5-2.1 3.2-2.1 2.4 0 3.5 1.7 3.5 3.9 0 1.2-.1 2.1-.5 2.7h-2m32.1 8.4c.6.4 2.1 1.1 3.9 1.1 1.5 0 2.8-.8 2.8-2.6 0-1.3-.8-1.9-2.4-2.8l-1.7-.9c-1.8-1-3-2.4-3-4.8 0-3.3 2.7-4.9 5.7-4.9 1.9 0 3.3.5 3.8.6L93.4 7c-.8-.3-1.9-.8-3.4-.8-1.7 0-2.5.9-2.5 2.1 0 1.3.9 1.9 1.9 2.5l2 1.1c2.1 1.2 3.2 2.3 3.2 4.9 0 3.7-2.6 5.5-6.2 5.5-1.8 0-3.3-.3-4.2-.8l.2-3m15-12.1h-4.1V3.7h11.5v2.7h-4.1V22h-3.3V6.4M59.9 85.8V74.6h3.2c1.9 0 3.6.9 3.6 3.5s-1.7 3.6-3.6 3.6h-1.3v4.2h-1.9m1.9-5.9h.7c1.1 0 2.1-.3 2.1-1.9 0-1.3-.8-1.8-2-1.8h-.8V80zm5.8-6.3h1.8v12.2h-1.8zM75 85.8v-1.3c-.5.9-1.2 1.4-2.2 1.4-1.3 0-2.3-.9-2.3-2.6 0-2.3 1.7-2.8 3.6-2.8h.8v-.3c0-1.2-.6-1.6-1.6-1.6-.6 0-1.3.2-2 .6l-.1-1.6c.7-.4 1.6-.6 2.3-.6 1.8 0 3.1.8 3.1 3.3v3.3c0 .8 0 1.4.1 2H75m-.5-3.8c-1.1 0-2.3.3-2.3 1.5 0 .8.4 1.3 1 1.3 1.1 0 1.6-1.1 1.6-2.4v-.4h-.3zm7.5 3.9c-.5.2-1 .4-1.6.4-1.6 0-1.9-1.2-1.9-3V79h-1.2v-1.6h1.2v-1.7l1.8-.8v2.5h1.5V79h-1.5v4.2c0 .7.1 1.3.8 1.3.3 0 .5-.1.7-.2l.2 1.4m1-11.8h1.8v1.8H83v-1.8zm0 3.4h1.8v8.5H83v-8.5zm3.3 8.5v-6.6c0-.6 0-1.3-.1-1.9H88v1.4c.4-1.1 1.3-1.6 2.2-1.6 1.6 0 2.3 1.2 2.3 3.2v5.4h-1.8v-4.9c0-1-.1-2.1-1.1-2.1-1.1 0-1.3 1.2-1.3 2.3v4.7l-2 .1m12.1 0l-.1-1.4c-.4 1.1-1.2 1.6-2.2 1.6-1.6 0-2.3-1.3-2.3-3.2v-5.4h1.8v4.9c0 1 .1 2.1 1.1 2.1 1.1 0 1.3-1.2 1.3-2.3v-4.7h1.8V84c0 .6 0 1.3.1 1.9l-1.5-.1m3.2 0v-6.6c0-.6 0-1.3-.1-1.9h1.8v1.4c.4-1.1 1.1-1.6 2.1-1.6 1.1 0 1.8.7 2 1.7.4-1.1 1.3-1.7 2.1-1.7 1.6 0 2.2 1.3 2.2 3.2v5.4h-1.8v-5.3c0-.9-.2-1.7-1.1-1.7-.9 0-1.3 1.2-1.3 2.3v4.7h-1.8v-5.3c0-.9-.2-1.7-1-1.7-.9 0-1.3 1.2-1.3 2.3v4.7h-1.8m14.7.1v-6.6c0-.6 0-1.3-.1-1.9h1.8v1.4c.4-1.1 1.1-1.6 2.1-1.6s1.8.7 2 1.7c.4-1.1 1.3-1.7 2.1-1.7 1.6 0 2.2 1.3 2.2 3.2v5.4h-1.8v-5.3c0-.9-.2-1.7-1.1-1.7-.9 0-1.3 1.2-1.3 2.3v4.7h-1.8v-5.3c0-.9-.2-1.7-1-1.7-.9 0-1.3 1.2-1.3 2.3v4.7h-1.8m13-3.6c.1 1.5.8 2.3 2.2 2.3.6 0 1.4-.2 1.8-.6l.1 1.6c-.6.3-1.4.5-2.1.5-2.5 0-3.8-1.6-3.8-4.5 0-2.5 1.3-4.4 3.3-4.4 2.2 0 3 1.8 3 4.3v.7l-4.5.1m2.9-1.3c0-1.1-.3-2.2-1.3-2.2-1.1 0-1.5 1.1-1.6 2.2h2.9zm2.8 5v-6.6c0-.6 0-1.3-.1-1.9h1.8v1.4c.4-1.1 1.1-1.6 2.1-1.6s1.8.7 2 1.7c.4-1.1 1.3-1.7 2.1-1.7 1.6 0 2.2 1.3 2.2 3.2v5.4h-1.8v-5.3c0-.9-.2-1.7-1.1-1.7-.9 0-1.3 1.2-1.3 2.3v4.7h-1.8v-5.3c0-.9-.2-1.7-1-1.7-.9 0-1.3 1.2-1.3 2.3v4.7H135m11.5.1V73.7h1.8v5.1c.4-1 1.2-1.6 2.1-1.6 2.1 0 2.8 2.1 2.8 4.4 0 2.3-.8 4.5-2.8 4.5-.9 0-1.7-.5-2.1-1.6v1.4l-1.8-.1m3.3-1.5c1.2 0 1.5-1.6 1.5-2.8 0-1.2-.2-2.8-1.4-2.8s-1.5 1.6-1.5 2.8c0 .6.1 1.3.3 1.8.2.6.5 1 1.1 1zm6.1-2.2c.1 1.5.8 2.3 2.2 2.3.6 0 1.4-.2 1.8-.6l.1 1.6c-.6.3-1.4.5-2.1.5-2.5 0-3.8-1.6-3.8-4.5 0-2.5 1.3-4.4 3.3-4.4 2.2 0 3 1.8 3 4.3v.7l-4.5.1m2.8-1.3c0-1.1-.3-2.2-1.3-2.2s-1.5 1.1-1.6 2.2h2.9zm2.7 5v-6.6c0-.6 0-1.3-.1-1.8h1.8l.1 1.6c.4-.9 1-1.8 1.9-1.8.2 0 .4 0 .6.1l-.1 2.1c-.1-.1-.4-.1-.6-.1-1.3 0-1.7 1.5-1.7 2.8v3.7h-1.9"/></svg>