<svg xmlns="http://www.w3.org/2000/svg" viewBox="0 0 109.1 94.7"><path fill="#332a86" d="M26.2 69.4H57v3.7H26.2zm0-8H57v3.7H26.2zm0-7.9H57v3.7H26.2zm0-8H57v3.7H26.2zm40.2 23.9h30.8v3.7H66.4zm0-8h30.8v3.7H66.4zm0-7.9h30.8v3.7H66.4zm0-8h30.8v3.7H66.4z"/><path d="M13.7 0v7.5L0 10.3l13.7 62.4v22H109V0H13.7zm89.5 88.9H19.5V5.8h83.7v83.1z" fill="#332a86"/><path d="M26 18.3c0-.8.6-1.4 1.4-1.4h4.5c1.4 0 2.6.4 3.3 1.1.6.6.9 1.3.9 2.2 0 1.4-.8 2.2-1.7 2.7 1.5.6 2.4 1.4 2.4 3.1 0 2.3-1.9 3.5-4.7 3.5h-4.6c-.8 0-1.4-.6-1.4-1.4v-9.8zm5.2 3.8c1.2 0 2-.4 2-1.3 0-.8-.7-1.3-1.8-1.3h-2.8v2.7h2.6zm.8 5.1c1.2 0 2-.4 2-1.4 0-.9-.6-1.4-2.1-1.4h-3.2v2.8H32zm6.7-9c0-.8.6-1.4 1.4-1.4.8 0 1.4.6 1.4 1.4v10.1c0 .8-.6 1.4-1.4 1.4-.8 0-1.4-.6-1.4-1.4V18.2zm5.5 0c0-.8.6-1.4 1.4-1.4.8 0 1.4.6 1.4 1.4v8.9h5.2c.7 0 1.3.6 1.3 1.3s-.6 1.3-1.3 1.3h-6.6c-.8 0-1.4-.6-1.4-1.4V18.2zm10.8 0c0-.8.6-1.4 1.4-1.4.8 0 1.4.6 1.4 1.4v8.9H63c.7 0 1.3.6 1.3 1.3s-.6 1.3-1.3 1.3h-6.6c-.8 0-1.4-.6-1.4-1.4V18.2zm10.8 0c0-.8.6-1.4 1.4-1.4.8 0 1.4.6 1.4 1.4v10.1c0 .8-.6 1.4-1.4 1.4-.8 0-1.4-.6-1.4-1.4V18.2zm5.5.1c0-.8.6-1.4 1.4-1.4h.3c.7 0 1.1.3 1.4.8l5.4 7.1v-6.5c0-.8.6-1.4 1.4-1.4.8 0 1.4.6 1.4 1.4v10.1c0 .8-.6 1.4-1.4 1.4h-.1c-.7 0-1.1-.3-1.4-.8l-5.6-7.3v6.8c0 .8-.6 1.4-1.4 1.4-.8 0-1.4-.6-1.4-1.4V18.3zm13.3 5c0-3.6 2.8-6.6 6.6-6.6 1.9 0 3.2.4 4.3 1.2.3.2.6.6.6 1.1 0 .8-.6 1.4-1.4 1.4-.4 0-.7-.1-.9-.3-.8-.5-1.6-.9-2.8-.9-2 0-3.6 1.8-3.6 3.9 0 2.3 1.6 4 3.8 4 1 0 1.9-.3 2.6-.8v-1.8h-1.9c-.7 0-1.2-.5-1.2-1.2s.5-1.2 1.2-1.2h3.2c.8 0 1.4.6 1.4 1.4v3.1c0 .8-.3 1.4-1 1.8-1 .6-2.5 1.3-4.4 1.3-3.8.1-6.5-2.6-6.5-6.4z" fill="#332f85"/></svg>