<svg id="Layer_1" data-name="Layer 1" xmlns="http://www.w3.org/2000/svg" viewBox="0 0 51 33.7"><defs><style>.cls-1{fill:#332a86}</style></defs><title>bundle-icon-nav</title><path class="cls-1" d="M16.6 24a.5.5 0 0 0 .6 0 .37.37 0 0 0 0-.6 6.8 6.8 0 0 0-4.9-2 6.8 6.8 0 0 0-4.9 2 .42.42 0 1 0 .6.6 6.13 6.13 0 0 1 7.4-1 3.78 3.78 0 0 1 1.2 1zm-6.4 2.2a.42.42 0 0 0 .6.6 2.17 2.17 0 0 1 3 0 .5.5 0 0 0 .6 0 .38.38 0 0 0 0-.6 2.88 2.88 0 0 0-2.1-.9 4 4 0 0 0-2.1.9z"/><path class="cls-1" d="M9.4 25.4a4.23 4.23 0 0 1 5.9 0 .5.5 0 0 0 .6 0 .37.37 0 0 0 0-.6 5.09 5.09 0 0 0-3.5-1.5 4.69 4.69 0 0 0-3.5 1.5.38.38 0 0 0 0 .6c0 .1.3.1.5 0z"/><path class="cls-1" d="M24 31.5h-1.4V17.6a.65.65 0 0 0-.6-.6H2.4a.65.65 0 0 0-.6.6v13.9H.6a.65.65 0 0 0-.6.6v.9a.65.65 0 0 0 .6.6H24a.65.65 0 0 0 .6-.6v-.9a.58.58 0 0 0-.6-.6zm-9.1 1.4H9.7v-.7h5.2zm6.4-1.4H3.2v-13h18.1z"/><circle class="cls-1" cx="12.3" cy="28.1" r=".7"/><path class="cls-1" d="M45.6 22.5v7.3a2.26 2.26 0 0 1-2.1 2.1h-4a2.26 2.26 0 0 1-2.1-2.1v-7.3a1.46 1.46 0 0 0-1.2 1.6V32a1.72 1.72 0 0 0 1.6 1.6H45a1.76 1.76 0 0 0 1.8-1.6v-7.9a1.32 1.32 0 0 0-1.2-1.6z"/><path class="cls-1" d="M33.7 29h-2.9v-2.3h6.4v-1.5H22v1.5h2.1V29H22v.7h11.7a.45.45 0 0 0 .4-.3c-.1-.2-.2-.4-.4-.4zM3.8 0v17.7h1.5V1.5h44.2v23.7h-3.2v1.5H51V0H3.8z"/><path class="cls-1" d="M43.5 15.5V14a.2.2 0 0 0-.4 0v1.5h-3.4a1.37 1.37 0 0 0-1.4 1.4v12.8a1.37 1.37 0 0 0 1.4 1.4h3.8a1.37 1.37 0 0 0 1.4-1.4V16.9a1.37 1.37 0 0 0-1.4-1.4zm-4.2 2.7a.79.79 0 0 1 .8-.8H43a.79.79 0 0 1 .8.8v1.3a.79.79 0 0 1-.8.8h-2.9a.79.79 0 0 1-.8-.8zm1.8 6.4v-.9h.9v.9zm.9.9v.9h-.9v-.9zm-.9-2.7v-.9h.9v.9zm-.9 3.6h-.9v-.9h.9zm0-1.8h-.9v-.9h.9zm0-1.8h-.9v-.9h.9zm1.9 6.7h-1.3a.3.3 0 1 1 0-.6h1.3a.32.32 0 0 1 .3.3.27.27 0 0 1-.3.3zm1.7-3.1h-.9v-.9h.9zm0-1.8h-.9v-.9h.9zm0-1.8h-.9v-.9h.9zM26.9 8.3h-2.1v5.3h-1V8.3h-2.1v-.9h5.2zm3.9 5.2h-1.2l-2.3-6.1h1.1l1.4 4.1.4 1.2.4-1.2L32 7.4h1z"/></svg>