<svg xmlns="http://www.w3.org/2000/svg" viewBox="0 0 97.5 62.8"><g fill="#ef5077"><path d="M32.4 44.7c.1.1.3.2.5.2s.4-.1.5-.2c.3-.3.3-.8 0-1.1-2.4-2.4-5.6-3.7-9-3.7-3.4 0-6.6 1.3-9 3.7-.3.3-.3.8 0 1.1.3.3.8.3 1.1 0 3.4-3.4 8.7-4.4 13.5-1.9 1 .5 1.7 1.2 2.4 1.9zm-11.7 4.1c-.3.3-.3.8 0 1.1.3.3.8.3 1.1 0 .7-.7 1.7-1.1 2.7-1.1 1 0 2 .4 2.7 1.1.1.1.3.2.5.2s.4-.1.5-.2c.3-.3.3-.8 0-1.1-1-1-2.4-1.6-3.8-1.6-1.3.1-2.7.6-3.7 1.6z"/><path d="M19.1 47.2c3-3 7.8-3 10.8 0 .1.1.3.2.5.2s.4-.1.5-.2c.3-.3.3-.8 0-1.1-1.7-1.7-4-2.7-6.5-2.7s-4.8 1-6.5 2.7c-.3.3-.3.8 0 1.1.4.3.9.3 1.2 0z"/></g><path d="M46 58.6h-2.6V33.1c0-.6-.5-1.1-1.1-1.1h-36c-.6 0-1.1.5-1.1 1.1v25.5H3c-.6 0-1.1.5-1.1 1.1v1.6c0 .6.5 1.1 1.1 1.1h43c.6 0 1.1-.5 1.1-1.1v-1.6c0-.6-.5-1.1-1.1-1.1zm-16.8 2.5h-9.5v-1.3h9.5v1.3zm11.9-2.5H7.8v-24H41v24z" fill="#ef5077"/><circle cx="24.5" cy="52.3" r="1.3" fill="#ef5077"/><path d="M85.7 42v13.4c0 1.9-1.9 3.8-3.8 3.8h-7.4c-1.9 0-3.8-1.9-3.8-3.8V42c-1.5.2-2.3 1.5-2.3 3v14.6c0 1.7 1.6 3 3 3h13.3c1.7 0 3.3-1.4 3.3-3V44.9c0-1.5-.8-2.8-2.3-2.9z" fill="#ef5077"/><path d="M63.7 54h-5.3v-4.3h11.7V47H42.2v2.7H46V54h-3.8v1.3h21.5c.4 0 .6-.3.6-.6.1-.5-.2-.7-.6-.7zM9 .7v32.5h2.7V3.4h81.1V47h-6v2.7h8.7V.7z" fill="#ef5077"/><path d="M81.7 29.1v-2.7c0-.2-.2-.4-.4-.4s-.3.1-.3.3V29h-6.3c-1.5 0-2.6 1.2-2.6 2.6V55c0 1.5 1.2 2.6 2.6 2.6h6.9c1.5 0 2.6-1.2 2.6-2.6V31.7c.1-1.4-1-2.6-2.5-2.6zm-7.7 5c0-.8.7-1.5 1.5-1.5h5.4c.8 0 1.5.7 1.5 1.5v2.4c0 .8-.7 1.5-1.5 1.5h-5.4c-.8 0-1.5-.7-1.5-1.5v-2.4zm3.3 11.8v-1.7H79v1.7h-1.7zm1.8 1.6v1.7h-1.7v-1.7h1.7zm-1.8-4.9v-1.7H79v1.7h-1.7zm-1.6 6.6H74v-1.7h1.7v1.7zm0-3.3H74v-1.7h1.7v1.7zm0-3.3H74v-1.7h1.7v1.7zm3.5 12.3h-2.4c-.3 0-.5-.2-.5-.5s.2-.5.5-.5h2.4c.3 0 .5.2.5.5s-.2.5-.5.5zm3.2-5.7h-1.7v-1.7h1.7v1.7zm0-3.3h-1.7v-1.7h1.7v1.7zm0-3.3h-1.7v-1.7h1.7v1.7zM51.3 15.8h-3.8v9.7h-1.8v-9.7h-3.8v-1.6h9.5v1.6zm7.2 9.7h-2.1l-4.2-11.2h1.9l2.6 7.5.7 2.2.7-2.2 2.6-7.5h1.9l-4.1 11.2z" fill="#ef5077"/></svg>