<svg id="Layer_1" xmlns="http://www.w3.org/2000/svg" viewBox="0 0 58 39"><style>.st0{fill:#333086}</style><path class="st0" d="M56.6 34.1h-3.3V1.4c0-.7-.6-1.4-1.4-1.4H5.7C5 0 4.4.6 4.4 1.4v32.8h-3c-.8 0-1.4.7-1.4 1.4v2c0 .8.7 1.4 1.4 1.4h55.1c.8 0 1.4-.7 1.4-1.4v-2c.1-.8-.6-1.5-1.3-1.5zm-21.5 3.2H22.9v-1.6H35v1.6zm15.2-3.2H7.6V3.4h42.6v30.7zm1.7 3.3h-1.6v-1.6H52v1.6zm2.5 0h-1.6v-1.6h1.6v1.6z"/><path class="st0" d="M23 26.4V30l4.1-2.5c.6.1 1.2.1 1.9.1 6.5 0 11.7-4.2 11.7-9.3C40.7 13.2 35.5 9 29 9c-6.5 0-11.7 4.2-11.7 9.3 0 3.5 2.3 6.4 5.7 8.1z"/></svg>