<svg id="Layer_1" xmlns="http://www.w3.org/2000/svg" viewBox="0 0 52 42.3"><style>.st0{fill:#342f86}</style><path class="st0" d="M555.5 611.1c19.6 0 30.4-16.3 30.4-30.4v-1.4c2.1-1.5 3.9-3.4 5.3-5.5-1.9.8-4 1.4-6.1 1.7 2.2-1.3 3.9-3.4 4.7-5.9-2.1 1.2-4.3 2.1-6.8 2.6-1.9-2.1-4.7-3.4-7.8-3.4-5.9 0-10.7 4.8-10.7 10.7 0 .8.1 1.7.3 2.4-8.9-.4-16.7-4.7-22-11.1-.9 1.6-1.4 3.4-1.4 5.4 0 3.7 1.9 7 4.7 8.9-1.8-.1-3.4-.5-4.8-1.3v.1c0 5.2 3.7 9.5 8.6 10.5-.9.2-1.8.4-2.8.4-.7 0-1.4-.1-2-.2 1.4 4.2 5.3 7.3 10 7.4-3.7 2.9-8.3 4.6-13.3 4.6-.9 0-1.7 0-2.5-.1 4.6 2.9 10.2 4.6 16.2 4.6" transform="translate(-539.18 -568.86)"/></svg>