<svg id="Layer_1" xmlns="http://www.w3.org/2000/svg" viewBox="0 0 51 40.8"><style>.st0{fill:#333086}</style><path class="st0" d="M50.2 7.8L45.4 0H5.8L.7 8c-.5.6-.7 1.3-.7 2.1 0 2 1.6 3.6 3.6 3.6s3.6-1.6 3.6-3.6c0 2 1.6 3.6 3.6 3.6s3.6-1.6 3.6-3.6c0 2 1.6 3.6 3.6 3.6s3.6-1.6 3.6-3.6c0 2 1.6 3.6 3.6 3.6s3.6-1.6 3.6-3.6c0 2 1.6 3.6 3.6 3.6s3.6-1.6 3.6-3.6c0 2 1.6 3.6 3.6 3.6s3.6-1.6 3.6-3.6c0 2 1.6 3.6 3.6 3.6s3.6-1.6 3.6-3.6c.6-.9.3-1.6-.2-2.3z"/><path class="st0" d="M47.9 37.6h-2.8V15.1c-.9-.7-1.4-1.3-1.4-2.5 0 1.5-.9 2.3-2.1 2.9V30H9.5V15.6c-1.3-.5-2.3-1.5-2.3-3 0 1.1-.5 1.7-1.3 2.4v22.6H3.3c-.9 0-1.6.7-1.6 1.6 0 .9.7 1.6 1.6 1.6h44.6c.9 0 1.6-.7 1.6-1.6 0-.9-.7-1.6-1.6-1.6z"/><path class="st0" d="M37.9 21.7c.1.1.2.2.4.2.1 0 .3-.1.4-.2.2-.2.2-.5 0-.7l-5.1-5.1c-.2-.2-.5-.2-.8 0-.2.2-.2.5 0 .7l5.1 5.1zm.3 5.7c.1.1.2.2.4.2.1 0 .3-.1.4-.2.2-.2.2-.5 0-.7L28.4 16.2c-.2-.2-.5-.2-.8 0-.2.2-.2.5 0 .7l10.6 10.5z"/></svg>