<svg xmlns="http://www.w3.org/2000/svg" viewBox="0 0 452.2 120.3"><g fill="#333086"><path d="M56.5 71c-.1-4.8-1.6-8.6-4.2-11.7-2.8-3-7.2-5-12.7-5-5.9 0-10.8 2.1-13.7 5.3-2.5 2.9-4.1 7.2-4.4 11.3 0 0 0 .1.1.1h34.9zm12 29.7c0 3.2-2.4 5.5-6.9 7.5-5.8 2.5-12.8 4-20.2 4-11.2 0-20.4-3.7-26.6-10.3-5.9-6.2-9.3-15.1-9.3-25.5 0-9.7 3.4-18.3 9.3-24.5 5.6-5.9 14-9.6 24.6-9.6 10.5 0 18.5 3.8 23.8 9.2 6 6.3 8.1 14.2 8.1 21.5 0 4.7-2.8 8.4-7.7 8.4H21.5s-.1 0-.1.1c.5 4.8 2.2 9.1 5 12.2 3.7 4.3 9.1 6.6 15.9 6.6 5.3 0 9.9-1.3 13.4-2.9 3.2-1.5 4.9-2.8 7.1-2.8 3.3-.1 5.7 2.8 5.7 6.1m48.4-3.4V80.1s0-.1-.1-.1c-15.9.9-26.8 3.9-26.8 11.7 0 6.5 6.5 9.4 13.4 9.4 4.5 0 9.2-1.3 13.5-3.8M88.6 74.7c8.2-3.4 19.1-4.4 28.3-5.2 0 0 .1 0 .1-.1v-1.7c0-4.7-.9-7.7-2.8-10-2.4-2.8-5.9-3.8-9.9-3.8-5 0-9.2 1.3-12.5 2.8-3.9 1.7-5.6 2.6-8.1 2.3-2-.2-4.1-2.1-4.4-4.1-.9-4.7 3-7 7.7-8.9 5.5-2.2 12.1-3.7 19-3.7 6.6 0 14.9 1.3 20.5 7.5 3.5 4 5.6 9.4 5.6 18v37c0 4.1-3.5 7.4-7.5 7.4-3.1 0-5.7-1.6-6.9-4.1h-.1c-6 3.2-11.9 4.1-18.7 4.1-12 0-23.2-7.1-23.2-20.2-.1-9 5.3-14.2 12.9-17.3m95.9-17.1c-4.7 0-9-3-15.9-3-6.3 0-10.5 1.9-10.5 6.3 0 3.8 3 5.9 6.9 7.7 4.6 1.9 10.3 3.5 14.9 5.8 8.7 4.3 12.1 9.4 12.1 17.1 0 12.3-10.2 20.7-26.3 20.7-9.7 0-25.1-2.2-25.1-11.2 0-3.1 2.6-5.8 5.7-5.9 5.6-.1 7.9 5.3 18.3 5.3 6.8 0 11.4-2.4 11.4-7.5 0-4.4-3.2-6.5-7.7-8.6-4.1-1.9-10.2-3.4-15.2-5.8-7.2-3.4-11.1-8.9-11.1-17.3 0-11.8 9.2-19 25.5-19 11.8 0 22.7 2.4 22.7 9.3.2 3.4-2.5 6.1-5.7 6.1m21.6-14.1v-9.9c0-4.1 3.1-7.6 7.1-7.8 4.3-.2 8.1 3.1 8.1 7.4v10.4s0 .1.1.1h16.8c3.1 0 5.8 2.7 5.8 6.1 0 3.3-2.7 5.9-5.8 5.9h-16.8s-.1 0-.1.1v32.1c0 7.8 2.7 11.8 9.4 11.8 6.5 0 8.6-4.9 13-4.9 3.8 0 5.8 2.8 5.8 6.1 0 3.7-3.7 6.6-8.1 8.7-4 1.8-8.7 2.8-13.4 2.8-15.9 0-21.8-10.3-21.8-23.2V55.6s0-.1-.1-.1h-5.2c-3 0-5.9-2.5-6.1-5.5-.2-3.6 2.4-6.4 5.7-6.4l5.6-.1c0 .1 0 .1 0 0zm49.7-26.8c0-3.9 2.9-7.4 6.9-7.7 4.6-.4 8.2 3 8.2 7.4v88c0 3.8-2.7 7.3-6.5 7.7-4.6.6-8.5-2.9-8.5-7.3l-.1-88.1zm34.5 25.5c4.3 0 7.5 3.4 7.5 7.4v55.2c0 4.1-3.5 7.4-7.5 7.4-4.3 0-7.5-3.2-7.5-7.4V49.6c0-4 3.2-7.4 7.5-7.4m-8.2-18.3c0-4.8 4.1-8.6 9.2-8.1 3.8.4 6.9 3.4 7.2 7.2.5 5.1-3.3 9.2-8.1 9.2-4.7-.1-8.3-3.6-8.3-8.3m104.8 71.2l.6-.5 34.3-26.1zm13.6 9.8v-13s-.1-.1-.1 0l-13.8 10.5c-.1 0-1.1.9-1.1 2.3v.4c.1 4 3.3 7.2 7.5 7.2 3.9-.1 7.5-3.3 7.5-7.4"/><path d="M421.5 68.7l18.4-14.4c1.4-1.4 2.2-3.3 2.2-5.1.1-3.8-2.7-7.6-6.9-7.7-1.9 0-3.9.9-5.3 2.3l-16.2 18.6-27.3 31.5-.9 1c-.2.2-.2.6 0 .8.2.2.6.2.8 0l2.8-2.3 32.4-24.7zM309.6 50c0-3.9 2.9-7.4 6.9-7.7 4.6-.4 8.2 3 8.2 7.4v3c4.9-6.8 12.5-10.3 21.8-10.3 7.7 0 14.6 1.9 19.5 6.3 5 4.4 7.8 11.7 7.8 21.8v34.4c0 4.1-3.5 7.4-7.5 7.4-4.3 0-7.7-3.2-7.7-7.4V74.2c0-6.1-.9-11.5-4.3-15.1-2.4-2.4-5.8-3.8-10.8-3.8-6.8 0-12.1 3.1-15.3 8.9-2.5 4.6-3.5 10.2-3.5 15.6v25.1c0 4.9-5 8.6-9.8 7-3.2-1-5.2-4.2-5.2-7.5V50zm134.7 54.9c0-1.3-.4-2.7-1.3-3.8l-19.6-24.2c-1.1-1.1-2.2-.9-2.8-.5l-9.8 7.5v.1l19.9 25.1c1.5 1.9 3.7 3.2 6 3.2 3.9-.1 7.6-3.3 7.6-7.4m-43.8-38.5V16.5c0-4.1-3.2-7.4-7.5-7.4s-7.5 3.2-7.5 7.4v68.3c.1.6.4 1.3 1.5 0l11.3-13.1.6-.7c1.7-2.1 1.6-4.6 1.6-4.6z"/></g></svg>