<svg xmlns="http://www.w3.org/2000/svg" viewBox="0 0 700 256.1"><g fill="#323085"><path d="M81.4 98.7s.1-.1 0 0c-.2-7.6-2.5-13.7-6.7-18.6-4.5-4.7-11.5-8-20.2-8-9.4 0-17.2 3.3-21.9 8.5-4 4.7-6.6 11.5-7.1 18 0 .1 0 .1.1.1h55.8zm19.1 47.3c0 5.2-3.8 8.7-11.1 12-9.2 4-20.5 6.4-32.3 6.4-17.9 0-32.5-5.9-42.4-16.5C5.4 138 0 123.9 0 107.1c0-15.5 5.4-29.1 14.8-39 8.9-9.4 22.4-15.3 39.3-15.3 16.7 0 29.4 6.1 37.9 14.6 9.7 10.1 13 22.6 13 34.3 0 7.5-4.5 13.4-12.2 13.4H25.6c-.1 0-.1 0-.1.1.7 7.7 3.5 14.5 8 19.4 5.9 6.8 14.6 10.6 25.4 10.6 8.5 0 15.8-2.1 21.4-4.7 5.2-2.4 7.8-4.5 11.3-4.5 5.2.1 8.9 4.8 8.9 10m77.2-5.4v-27.5c0-.1 0-.1-.1-.1-25.4 1.4-42.7 6.1-42.7 18.6 0 10.4 10.4 15.1 21.4 15.1 7.1 0 14.6-2.1 21.4-6.1m-45.2-36c13.2-5.4 30.5-7.1 45.1-8.2 0 0 .1 0 .1-.1v-2.7c0-7.5-1.4-12.2-4.5-16-3.8-4.5-9.4-6.1-15.8-6.1-8 0-14.6 2.1-20 4.5-6.2 2.7-9 4.2-13 3.7-3.2-.4-6.5-3.4-7.1-6.6-1.4-7.4 4.7-11.1 12.3-14.3 8.7-3.5 19.3-5.9 30.4-5.9 10.6 0 23.8 2.1 32.7 12 5.7 6.4 8.9 15.1 8.9 28.7v59.1c0 6.6-5.6 11.8-12 11.8-4.9 0-9.1-2.6-11-6.5 0 0-.1-.1-.1 0-9.6 5.1-19 6.5-29.8 6.5-19.1 0-37-11.3-37-32.3.1-14.5 8.8-22.7 20.8-27.6m153.1-27.3c-7.5 0-14.4-4.7-25.4-4.7-10.1 0-16.7 3.1-16.7 10.1 0 6.1 4.7 9.4 11.1 12.2 7.3 3.1 16.5 5.7 23.8 9.2 13.9 6.8 19.3 15.1 19.3 27.3 0 19.5-16.2 33-41.9 33-15.5 0-40-3.5-40-17.9 0-5 4.2-9.3 9.2-9.4 8.9-.2 12.6 8.5 29.2 8.5 10.8 0 18.1-3.8 18.1-12 0-7.1-5.2-10.4-12.2-13.7-6.6-3.1-16.2-5.4-24.2-9.2-11.5-5.4-17.7-14.1-17.7-27.5 0-18.8 14.6-30.4 40.7-30.4 18.8 0 36.3 3.8 36.3 14.8-.2 5.4-4.5 9.7-9.6 9.7m34.5-22.5V38.9c0-6.5 4.9-12.2 11.3-12.5 6.9-.4 12.9 4.9 12.9 11.7v16.6c0 .1 0 .1.1.1h26.7c4.9 0 9.2 4.2 9.2 9.7 0 5.2-4.2 9.4-9.2 9.4h-26.7c-.1 0-.1 0-.1.1v51.2c0 12.5 4.2 18.8 15.1 18.8 10.4 0 13.7-7.8 20.7-7.8 6.1 0 9.2 4.5 9.2 9.7 0 5.9-5.9 10.6-12.9 13.9-6.4 2.8-13.9 4.5-21.4 4.5-25.4 0-34.8-16.5-34.8-37V74c0-.1 0-.1-.1-.1h-8.4c-4.9 0-9.4-3.9-9.7-8.8-.3-5.7 3.8-10.3 9.2-10.3h8.9c-.1.1 0 0 0 0zm79.3-42.7c0-6.3 4.7-11.7 10.9-12.2 7.4-.6 13.1 4.8 13.1 11.7v140.3c0 6.1-4.4 11.6-10.4 12.4-7.3.9-13.6-4.6-13.6-11.7V12.1zm55 40.7c6.8 0 12 5.4 12 11.8v88c0 6.6-5.6 11.8-12 11.8-6.8 0-12-5.2-12-11.8v-88c0-6.4 5.1-11.8 12-11.8m-13.1-29.4c0-7.7 6.5-13.7 14.6-12.9 6 .6 11 5.5 11.5 11.5.8 8.2-5.2 14.6-12.9 14.6-7.5 0-13.2-5.7-13.2-13.2m167.2 113.7l.9-.8 54.7-41.6zm21.6 15.5v-20.7c0-.1-.1-.1-.1-.1l-22 16.8c-.1.1-1.7 1.5-1.8 3.7v.6c.1 6.5 5.3 11.5 12 11.5 6.2 0 11.9-5.2 11.9-11.8"/><path d="M663.6 95L693 72c2.2-2.2 3.4-5.2 3.5-8.2.1-6-4.3-12.1-10.9-12.3-3.1-.1-6.2 1.4-8.4 3.6l-25.8 29.6-43.5 50.3-1.5 1.7c-.4.4-.4.9 0 1.3.3.3.9.4 1.3 0l4.4-3.6L663.6 95zM485.2 65.1c0-6.3 4.7-11.7 10.9-12.2 7.3-.6 13.1 4.8 13.1 11.7v4.7c7.8-10.8 20-16.5 34.8-16.5 12.2 0 23.3 3.1 31.1 10.1 8 7.1 12.5 18.6 12.5 34.8v54.9c0 6.6-5.7 11.8-12 11.8-6.8 0-12.2-5.2-12.2-11.8v-49c0-9.7-1.4-18.4-6.8-24-3.8-3.8-9.2-6.1-17.2-6.1-10.8 0-19.3 4.9-24.5 14.1-4 7.3-5.7 16.2-5.7 25v40c0 7.8-8 13.7-15.7 11.2-5.1-1.7-8.4-6.7-8.4-12l.1-86.7zM700 152.6c0-2.1-.7-4.2-2.1-6.1l-31.2-38.6c-1.7-1.8-3.4-1.4-4.5-.8L646.6 119v.1l31.7 40c2.4 3.1 5.9 5.2 9.6 5.2 6.2.1 12.1-5.1 12.1-11.7m-69.9-61.4V11.6c0-6.6-5.2-11.8-12-11.8s-12 5.2-12 11.8v109c.1 1 .6 2.1 2.4-.1l18.1-20.9.9-1.2c2.8-3.1 2.6-7.1 2.6-7.2z"/></g><path d="M269.6 255.2h-5.5v-30l.7-12.6h-.1L249 255.2h-5l-15.7-42.6h-.1l.7 12.6v30h-5.5v-47.8h8.9l10.5 29 3.6 11.9h.1l3.7-11.9 10.4-29.1h8.9v47.9zm43.1-4.5l-.4 4.6c-1.4.5-2.8.7-4.3.7-1.9 0-3.4-.4-4.5-1.2-1.1-.8-1.8-2.2-2.1-4.1-1.1 1.7-2.7 3-4.9 3.9-2.1.9-4.4 1.4-6.8 1.4-3.6 0-6.5-.8-8.8-2.5s-3.5-4.1-3.5-7.2c0-2.8 1.2-5.1 3.6-7.1 2.4-2 5.9-3.4 10.5-4.2l9.6-1.6v-2c0-2.4-.7-4.3-2.2-5.8-1.5-1.4-3.6-2.2-6.2-2.2-2.4 0-4.5.6-6.3 1.7-1.8 1.2-3.1 2.9-4.1 5.1l-4.3-3.1c1-2.7 2.8-4.9 5.4-6.4 2.6-1.6 5.7-2.4 9.2-2.4 4.3 0 7.7 1 10.4 3.1 2.6 2.1 3.9 5.1 3.9 9.2v17.8c0 .9.2 1.5.7 2 .4.4 1.1.7 2.1.7 1-.1 2-.2 3-.4zm-14.8-2c2.2-1.4 3.3-3.3 3.3-5.6v-5l-8.1 1.5c-3.2.6-5.6 1.4-7.2 2.5-1.6 1.1-2.4 2.5-2.4 4.2 0 1.5.6 2.6 1.7 3.4s2.8 1.2 4.8 1.2c3.1 0 5.7-.8 7.9-2.2zm33-11.4l-7.7 7.7v10.2h-5.8v-52.8h5.8v35.4L342 219h7.2l-14.1 14.1 15 22.1h-7l-12.2-17.9zm53.4 2H357c.3 3.7 1.6 6.5 3.7 8.5s4.8 3 8.1 3c2.7 0 4.9-.5 6.6-1.4 1.8-.9 3-2.2 3.6-4l4.8 2.5c-1.4 2.6-3.4 4.5-5.8 5.9-2.4 1.4-5.5 2-9.3 2-5.5 0-9.7-1.7-12.8-5s-4.7-7.9-4.7-13.8 1.5-10.5 4.5-13.8c3-3.3 7.2-5 12.6-5 3.4 0 6.3.7 8.8 2.2 2.5 1.5 4.3 3.5 5.6 6.1 1.3 2.6 1.9 5.4 1.9 8.6 0 1.5-.1 2.8-.3 4.2zm-23.6-13.1c-2 1.9-3.1 4.5-3.6 8H379c-.4-3.4-1.5-6-3.3-7.9-1.8-1.9-4.3-2.9-7.3-2.9-3.2 0-5.8.9-7.7 2.8zm73.1 26.5c-2.4 2.2-5.5 3.3-9.3 3.3-2.9 0-5.3-.8-7.2-2.4-1.9-1.6-2.8-4-2.9-7.3V224h-7.2v-5h7.2v-8.7l5.8-1.6V219h13.4v5h-13.4v21.2c0 1.7.5 3.1 1.5 3.9 1 .9 2.3 1.3 3.9 1.3 2.3 0 4.4-.9 6.2-2.7l2 5zm32.2-30.9c2.7 2.4 4 5.8 4 10.2v23.2h-5.8v-21.1c0-3.8-.8-6.5-2.4-8.2-1.6-1.7-3.8-2.5-6.5-2.5-1.9 0-3.7.4-5.4 1.3s-3.1 2.3-4.2 4.2c-1.1 1.9-1.6 4.3-1.6 7.2v19.2h-5.8v-52.8h5.8v22.1c1.2-2.1 2.8-3.6 4.9-4.6 2.1-1 4.4-1.5 6.9-1.5 4.1-.2 7.5 1 10.1 3.3zm44.3 17.5H483c.3 3.7 1.6 6.5 3.7 8.5s4.8 3 8.1 3c2.7 0 4.9-.5 6.6-1.4 1.8-.9 3-2.2 3.6-4l4.8 2.5c-1.4 2.6-3.4 4.5-5.8 5.9-2.4 1.4-5.5 2-9.3 2-5.5 0-9.7-1.7-12.8-5-3.1-3.3-4.7-7.9-4.7-13.8s1.5-10.5 4.5-13.8c3-3.3 7.2-5 12.6-5 3.4 0 6.3.7 8.8 2.2 2.5 1.5 4.3 3.5 5.6 6.1 1.3 2.6 1.9 5.4 1.9 8.6 0 1.5-.1 2.8-.3 4.2zm-23.7-13.1c-2 1.9-3.1 4.5-3.6 8h22c-.4-3.4-1.5-6-3.3-7.9-1.8-1.9-4.3-2.9-7.3-2.9-3.2 0-5.8.9-7.8 2.8zm57.9 19.3c0 1.8.3 3.1.8 3.8.6.7 1.6 1 3.1 1 1 0 1.9-.1 2.6-.2.7-.1 1.6-.4 2.6-.8l-.9 5.6c-1.6.7-3.4 1-5.4 1-2.9 0-5.1-.8-6.6-2.4-1.4-1.6-2.1-4-2.1-7.3v-43.9h5.8v43.2zm12.8-34.6c-.8-.8-1.2-1.8-1.2-3.1s.4-2.4 1.2-3.1c.8-.8 1.8-1.2 3.1-1.2s2.4.4 3.1 1.2c.8.8 1.2 1.8 1.2 3.1s-.4 2.4-1.2 3.1-1.8 1.2-3.1 1.2-2.3-.4-3.1-1.2zm6 44.3h-5.8V219h5.8v36.2zm37.6-33.4c2.7 2.4 4 5.8 4 10.2v23.2h-5.8v-21.1c0-3.8-.8-6.5-2.4-8.2-1.6-1.7-3.8-2.5-6.5-2.5-1.9 0-3.7.4-5.4 1.3-1.7.8-3.1 2.2-4.2 4.1-1.1 1.9-1.6 4.3-1.6 7.2v19.3h-5.8V219h5.1l.4 5.6c1.2-2.2 2.9-3.8 5-4.8s4.5-1.6 7.2-1.6c4 .1 7.3 1.3 10 3.6zm26.9 15.5l-7.7 7.7v10.2h-5.8v-52.8h5.8v35.4l18.7-18.7h7.2l-14 14 15 22.1h-7l-12.2-17.9z" fill="#323085"/><path fill="#f1a91d" d="M673.5 255h9l12.4-17.2-12.9-17.7h-9l12.9 17.7z"/></svg>