<svg xmlns="http://www.w3.org/2000/svg" viewBox="0 0 44.7 44.7"><ellipse cx="15.3" cy="14.3" rx="2.4" ry="4.9" fill="none"/><ellipse cx="29.3" cy="14.3" rx="2.4" ry="4.9" fill="none"/><path d="M22.4 0C10 0 0 10 0 22.4c0 12.3 10 22.4 22.4 22.4s22.4-10 22.4-22.4C44.7 10 34.7 0 22.4 0zm6.9 9.4c1.3 0 2.4 2.2 2.4 4.9s-1.1 4.9-2.4 4.9-2.4-2.2-2.4-4.9 1-4.9 2.4-4.9zm-14 0c1.3 0 2.4 2.2 2.4 4.9s-1.1 4.9-2.4 4.9c-1.3 0-2.4-2.2-2.4-4.9s1.1-4.9 2.4-4.9zm19.9 23.4c-.5 0-.8-.4-.7-.8-1.6 1.3-6.1 4.6-12.2 4.6-3.6 0-7.8-1.2-12.1-4.8v.2c0 .4-.3.8-.7.8h-.1c-.4 0-.7-.3-.7-.7-.1-1 .2-1.8.9-2.4.8-.7 2-.8 2.6-.6.4.1.6.5.5.9-.1.4-.5.6-.9.5 10.2 8.1 18.9 1.9 21.2 0h-.2c-.4.1-.8-.1-.9-.5s.1-.8.5-.9c.7-.2 1.8 0 2.6.6.7.6 1 1.4.9 2.4 0 .4-.3.7-.7.7z" fill="#7cad41"/></svg>