<svg xmlns="http://www.w3.org/2000/svg" viewBox="0 0 97.5 62.8"><path d="M62 26.5v21.3c0 3-3 6-6 6H44.2c-3 0-6-3-6-6V26.5c-2.4.3-3.6 2.3-3.6 4.7v23.1c0 2.6 2.5 4.8 4.8 4.8h21c2.6 0 5.2-2.1 5.2-4.8v-23c0-2.4-1.2-4.5-3.6-4.8z" fill="#ef5077"/><path d="M55.7 6.1V1.8c0-.3-.3-.6-.6-.6s-.6.3-.6.6v4.3h-9.9c-2.3 0-4.2 1.9-4.2 4.2v37.1c0 2.3 1.9 4.2 4.2 4.2h11c2.3 0 4.2-1.9 4.2-4.2V10.3c0-2.3-1.8-4.1-4.1-4.2zm-12.2 8c0-1.3 1.1-2.4 2.4-2.4h8.5c1.3 0 2.4 1.1 2.4 2.4V18c0 1.3-1.1 2.4-2.4 2.4h-8.5c-1.3 0-2.4-1.1-2.4-2.4v-3.9zm5.2 18.8v-2.8h2.8v2.8h-2.8zm2.8 2.4v2.8h-2.8v-2.8h2.8zm-2.8-7.7v-2.8h2.8v2.8h-2.8zm-2.5 10.5h-2.8v-2.8h2.8v2.8zm0-5.2h-2.8v-2.8h2.8v2.8zm0-5.3h-2.8v-2.8h2.8v2.8zM51.7 47h-3.8c-.4 0-.7-.3-.7-.7s.3-.7.7-.7h3.8c.4 0 .7.3.7.7s-.3.7-.7.7zm5.1-8.9H54v-2.8h2.8v2.8zm0-5.2H54v-2.8h2.8v2.8zm0-5.3H54v-2.8h2.8v2.8z" fill="#ef5077"/></svg>