<svg xmlns="http://www.w3.org/2000/svg" viewBox="0 0 27 26.5"><g fill="#342f86"><path d="M13.5 8.2c-1.7 0-3.1 1.4-3.1 3.1v2.4h6.2v-2.4c0-1.6-1.4-3.1-3.1-3.1z"/><path d="M23.1 7.8V3h-3.4v2.2L13.5 0 0 11.1h3.9v14.6c0 .4.3.8.8.8h17.4c.5 0 .8-.3.8-.8V11.1h4l-3.8-3.3zm-3 16.4H6.7V13.8H9v-2.4C9 9 11 7 13.4 7s4.4 2 4.4 4.4v2.4H20l.1 10.4z"/><path d="M15.2 18.2v1.1l-.1.1-.8.1c0 .1-.1.3-.2.4.1.2.3.4.5.6v.2c-.1.1-.2.3-.4.5s-.4.3-.4.3h-.1L13 21c-.1.1-.3.1-.4.2 0 .4-.1.7-.1.8 0 .1-.1.1-.2.1h-1.1l-.1-.1-.1-.8c-.1 0-.3-.1-.4-.2l-.6.5h-.2c-.5-.5-.8-.8-.8-.9v-.1c0-.1.1-.1.2-.3.1-.1.2-.3.3-.3-.1-.2-.1-.3-.2-.4l-.8-.1s-.1 0-.1-.1v-1.2l.1-.1.8-.1c0-.1.1-.3.2-.4-.1-.2-.3-.4-.5-.6v-.2c.1-.1.2-.3.4-.5s.4-.3.4-.3h.1l.6.5c.1-.1.3-.1.4-.2 0-.4.1-.7.1-.8 0-.1.1-.1.2-.1h1.1l.1.1.1.8c.1 0 .3.1.4.2l.6-.5h.2c.5.5.8.8.8.9v.1c0 .1-.1.2-.2.3-.1.1-.2.2-.2.3.1.2.1.3.2.4l.8.1s.1 0 .1.1v.1zm-2.5 1.5c.3-.3.4-.6.4-1s-.1-.7-.4-1c-.3-.3-.6-.4-1-.4s-.7.1-1 .4c-.3.3-.4.6-.4 1s.1.7.4 1c.3.3.6.4 1 .4.5 0 .8-.1 1-.4zm6 1.4v.8c0 .1-.3.1-.8.2 0 .1-.1.2-.2.3.2.4.3.7.3.7-.4.3-.7.4-.7.4s-.1-.1-.2-.3c-.1-.2-.2-.3-.3-.4h-.4c-.1.1-.1.2-.3.4-.1.2-.2.3-.2.3s-.2-.1-.7-.4c0-.1.1-.3.3-.7-.1-.1-.1-.2-.2-.3-.5-.1-.8-.1-.8-.2v-.8c0-.1.3-.1.8-.2 0-.1.1-.2.2-.3-.2-.4-.3-.7-.3-.7s.1 0 .2-.1.2-.1.3-.2c.1-.1.2-.1.2-.1s.1.1.2.3c.1.2.2.3.3.4h.4c.2-.3.3-.5.5-.6 0 0 .2.1.7.4 0 .1-.1.3-.3.7.1.1.1.2.2.3.5 0 .8.1.8.1zm-1.4.4c0-.2-.1-.3-.2-.5-.1-.1-.3-.2-.5-.2s-.3.1-.5.2c-.1.1-.2.3-.2.5s.1.4.2.5c.1.1.3.2.5.2s.4-.1.5-.2c.1-.2.2-.3.2-.5z"/></g></svg>