<svg xmlns="http://www.w3.org/2000/svg" viewBox="0 0 50 22.2"><path d="M39.1.3c-2.8 0-5.4 1-7.5 3L17 17.5c-1.6 1.6-3.8 2.5-6.1 2.5-4.8 0-8.7-3.9-8.7-8.7s3.9-8.7 8.7-8.7c2.4 0 4.8 1.1 6.5 3h-2.8c-.6 0-1.1.5-1.1 1.1s.5 1.1 1.1 1.1H21V1.1c0-.6-.5-1.1-1.1-1.1-.6 0-1.1.5-1.1 1.1v2.6c-2.1-2.2-5-3.4-7.9-3.4-6 0-10.9 5-10.9 11s4.9 10.9 10.9 10.9c2.9 0 5.6-1.1 7.7-3.1L33.1 4.9c1.6-1.5 3.7-2.3 5.9-2.3 4.8 0 8.7 3.9 8.7 8.7S43.8 20 39.1 20c-2 0-3.9-.7-5.5-1.9l-4.1-3.9c-.4-.4-1.2-.4-1.6 0-.4.4-.4 1.2 0 1.6l4.1 3.9.1.1c1.9 1.6 4.4 2.5 6.9 2.5 6 0 10.9-4.9 10.9-10.9S45.1.3 39.1.3z" fill="#6670af"/></svg>