<svg xmlns="http://www.w3.org/2000/svg" viewBox="0 0 97.5 62.8"><g fill="#332a86"><path d="M63.4 26.3c.3.3.6.4 1 .4s.7-.1 1-.4c.6-.6.6-1.4 0-2-4.4-4.4-10.3-6.9-16.6-6.9-6.3 0-12.2 2.4-16.6 6.9-.6.6-.6 1.4 0 2 .6.6 1.4.6 2 0 3.9-3.9 9.1-6.1 14.6-6.1 5.5.1 10.7 2.2 14.6 6.1zm-21.6 7.6c-.6.6-.6 1.4 0 2 .6.6 1.4.6 2 0 1.3-1.3 3.1-2.1 5-2.1s3.7.7 5 2.1c.3.3.6.4 1 .4s.7-.1 1-.4c.6-.6.6-1.4 0-2-1.8-1.9-4.3-2.9-7-2.9-2.6 0-5.1 1-7 2.9z"/><path d="M38.8 30.9c5.5-5.5 14.5-5.5 20 0 .3.3.6.4 1 .4s.7-.1 1-.4c.6-.6.6-1.4 0-2-3.2-3.2-7.5-5-12-5s-8.8 1.8-12 5c-.6.6-.6 1.4 0 2 .6.6 1.5.6 2 0z"/></g><path d="M88.5 51.9h-4.8V4.8c0-1.1-.9-2-2-2H15.3c-1.1 0-2 .9-2 2v47.1H9.2c-1.1 0-2.1.9-2.1 2.1v2.9c0 1.2.9 2.1 2.1 2.1h79.3c1.1 0 2.1-.9 2.1-2.1V54c-.1-1.1-1-2.1-2.1-2.1zm-31 4.5H40.1v-2.3h17.5v2.3zm21.9-4.6H18V7.7h61.4v44.1zm2.5 4.9h-2.3v-2.3h2.3v2.3zm3.7 0h-2.3v-2.3h2.3v2.3z" fill="#332a86"/><circle cx="48.8" cy="40.4" r="2.3" fill="#332a86"/></svg>