<svg xmlns="http://www.w3.org/2000/svg" viewBox="0 0 213.8 36.9"><path d="M24.9 28.5h-3V12.3l.4-6.8-8.5 23h-2.7l-8.5-23 .4 6.8v16.2H0V2.7h4.8l5.7 15.6 1.9 6.4h.1l2-6.4 5.6-15.7h4.8v25.9zm15.2 3.2c-.8 1.9-1.6 3.2-2.5 4-.9.8-2.1 1.2-3.6 1.2-1 0-1.8-.1-2.5-.4-.7-.3-1.3-.7-1.8-1.2l1.1-2.7c.8 1 1.8 1.6 3.2 1.6.8 0 1.4-.2 2-.7.6-.5 1.1-1.3 1.5-2.5l1-2.5L30.3 9h3.5l4.9 12.7 1.2 3.5 1.4-3.9L45.9 9h3.4l-9.2 22.7zm45-6.2v2.9H66.5V2.7h18.1v2.9h-15V14h11.6v2.9H69.6v8.7h15.5zm23.2.5l-.2 2.5c-.7.3-1.5.4-2.3.4-1 0-1.8-.2-2.4-.7s-1-1.2-1.1-2.2c-.6.9-1.5 1.6-2.6 2.1-1.2.5-2.4.8-3.6.8-1.9 0-3.5-.4-4.8-1.3-1.2-.9-1.9-2.2-1.9-3.9 0-1.5.6-2.8 1.9-3.8 1.3-1.1 3.2-1.8 5.7-2.2l5.2-.9v-1.1c0-1.3-.4-2.3-1.2-3.1-.8-.8-1.9-1.2-3.4-1.2-1.3 0-2.4.3-3.4.9-.9.6-1.7 1.5-2.2 2.8l-2.3-1.7c.5-1.5 1.5-2.6 2.9-3.5 1.4-.9 3.1-1.3 5-1.3 2.3 0 4.2.6 5.6 1.7 1.4 1.1 2.1 2.8 2.1 5v9.6c0 .5.1.8.4 1.1.2.2.6.4 1.1.4.5-.2 1-.3 1.5-.4zm-7.9-1c1.2-.8 1.8-1.8 1.8-3v-2.7l-4.4.7c-1.7.3-3 .8-3.9 1.3s-1.3 1.3-1.3 2.2c0 .8.3 1.4.9 1.9.6.4 1.5.6 2.6.6 1.7.1 3.1-.3 4.3-1zm14 2.7c-1.5-.7-2.6-1.8-3.3-3.3l2.5-1.8c.4 1.1 1.2 2 2.3 2.6 1.1.6 2.4.9 3.9.9s2.7-.3 3.5-.8c.8-.5 1.2-1.2 1.2-2.1 0-.8-.4-1.4-1.1-1.8-.8-.5-2.1-.9-4-1.2-1.9-.3-3.4-.7-4.4-1.2-1.1-.5-1.9-1.1-2.4-1.8s-.7-1.7-.7-2.7c0-1.1.3-2 .9-2.9.6-.9 1.5-1.6 2.7-2.1 1.2-.5 2.5-.8 4.1-.8 2.1 0 3.8.4 5 1.2 1.3.8 2.2 1.9 2.7 3.5l-2.7 1.6c-.4-1.2-1-2.1-1.9-2.7-.8-.5-1.9-.8-3.2-.8s-2.4.3-3.2.9c-.9.6-1.3 1.2-1.3 2 0 .9.4 1.5 1.2 2 .8.5 2.1.9 4.1 1.2 2.7.4 4.6 1.1 5.7 2 1.1.9 1.7 2.1 1.7 3.7 0 1.1-.3 2.1-1 3-.7.9-1.6 1.6-2.8 2-1.2.5-2.7.7-4.3.7-2-.1-3.7-.5-5.2-1.3zm31-.6c-1.3 1.2-3 1.8-5 1.8-1.6 0-2.9-.4-3.9-1.3s-1.5-2.2-1.5-3.9v-12h-4V9h3.9V4.3l3.1-.9V9h7.2v2.7H138v11.4c0 .9.3 1.6.8 2.1s1.2.7 2.1.7c1.2 0 2.4-.5 3.3-1.4l1.2 2.6zm7.3-3.9c0 1 .1 1.7.4 2 .3.4.9.6 1.7.6.5 0 1 0 1.4-.1.4-.1.9-.2 1.4-.4l-.5 3c-.9.4-1.8.5-2.9.5-1.6 0-2.8-.4-3.5-1.3-.8-.9-1.2-2.2-1.2-3.9V0h3.1v23.2zm8.9-18.6c-.4-.4-.6-1-.6-1.7s.2-1.3.6-1.7c.4-.4 1-.6 1.7-.6s1.3.2 1.7.6c.4.4.6 1 .6 1.7s-.2 1.3-.6 1.7c-.4.4-1 .6-1.7.6s-1.3-.2-1.7-.6zm3.2 23.9h-3.1V9h3.1v19.5zm22.2-18c1.4 1.3 2.1 3.1 2.1 5.5v12.5H186V17.1c0-2-.4-3.5-1.3-4.4-.9-.9-2-1.4-3.5-1.4-1 0-2 .2-2.9.7-.9.5-1.7 1.2-2.2 2.2-.6 1-.9 2.3-.9 3.9v10.4h-3.1V9h2.7l.2 3c.6-1.2 1.5-2 2.7-2.6 1.1-.6 2.4-.8 3.9-.8 2.2 0 4 .6 5.4 1.9zm16.5 8.3l-4.1 4.1v5.5h-3.1V0h3.1v19.1l10-10.1h3.9l-7.6 7.6 8.1 11.9H210l-6.5-9.7z" fill="#343485"/></svg>