<svg id="Layer_1" xmlns="http://www.w3.org/2000/svg" viewBox="0 0 78 97.3"><style>.st0{fill:#fff}</style><path class="st0" d="M68.4 37.5H24V18.8c0-8.4 6.8-15.2 15.2-15.2s15.2 6.8 15.2 15.2v10.9c0 1 .8 1.8 1.8 1.8s1.8-.8 1.8-1.8V18.8C58.1 8.4 49.7 0 39.3 0S20.5 8.4 20.5 18.8v18.7h-11c-5.3 0-9.6 4.3-9.6 9.6v40.7c0 5.3 4.3 9.6 9.6 9.6h58.9c5.3 0 9.6-4.3 9.6-9.6V47.1c0-5.3-4.3-9.6-9.6-9.6zm6 50.3c0 3.3-2.7 6-6 6H9.5c-3.3 0-6-2.7-6-6V47.1c0-3.3 2.7-6 6-6h58.9c3.3 0 6 2.7 6 6v40.7z"/><path class="st0" d="M39.3 52c-5.1 0-9.3 4.2-9.3 9.3 0 3.7 2.1 6.8 5.2 8.4v9.4c0 .9.7 1.6 1.6 1.6h4.9c.9 0 1.6-.7 1.6-1.6v-9.4c3.1-1.5 5.2-4.7 5.2-8.4.1-5.2-4-9.3-9.2-9.3z"/></svg>