<svg xmlns="http://www.w3.org/2000/svg" viewBox="0 0 160 116"><path d="M79.3 6.2C52.1 6.2 30 28.3 30 55.5s22.1 49.3 49.3 49.3c27.2 0 49.3-22.1 49.3-49.3s-22-49.3-49.3-49.3zm4.4 72.5c0 3.2-2.4 5.6-5.7 5.6-3.3 0-5.7-2.4-5.7-5.6v-.8c0-3.2 2.4-5.6 5.7-5.6 3.3 0 5.7 2.4 5.7 5.6v.8zm14.9-35.6c0 10.2-7.4 14.8-16.3 16.3l-.3 3.8c-.3 1.8-1.6 3.2-3.5 3.2H78c-1.9 0-3.2-1.4-3.5-3.2l-.8-7c-.3-2.2 1-3.8 3.2-4 7.6-.7 11.8-3.6 11.8-8.7v-.2c0-4.5-3.5-7.7-9.3-7.7-4.3 0-7.8 1.5-11 4.4-.8.6-1.9 1.1-3 1.1-2.5 0-4.5-2-4.5-4.4 0-1.2.5-2.5 1.6-3.5 4.3-4 9.7-6.7 17.2-6.7 11.3 0 19 6.3 19 16.4v.2z" fill="#6670af"/></svg>