<svg xmlns="http://www.w3.org/2000/svg" viewBox="0 0 160 116"><path d="M144.6 92.4h-8v-78c0-1.8-1.5-3.2-3.2-3.2H23.7c-1.8 0-3.2 1.5-3.2 3.2v77.9h-7c-1.9 0-3.4 1.5-3.4 3.4v4.8c0 1.9 1.5 3.4 3.4 3.4h131.1c1.9 0 3.4-1.5 3.4-3.4v-4.8c.1-1.8-1.5-3.3-3.4-3.3zm-51.1 7.4H64.6V96h28.9v3.8zm36.1-7.6H28.2v-73h101.4v73zm4.2 8h-3.9v-3.9h3.9v3.9zm6.1 0H136v-3.9h3.9v3.9z" fill="#6670af"/><path d="M64 71.9v8.7l9.8-5.9c1.4.2 2.9.3 4.4.3C93.6 75 106 65 106 52.8c0-12.3-12.4-22.2-27.8-22.2s-27.8 10-27.8 22.2c0 8.1 5.5 15.2 13.6 19.1z" fill="#6670af"/></svg>