<svg xmlns="http://www.w3.org/2000/svg" viewBox="0 0 160 116"><path d="M139.9 27.3L128.1 8.1H31L18.4 27.8c-1 1.4-1.6 3.2-1.6 5.1 0 4.9 4 8.9 8.9 8.9s8.9-4 8.9-8.9c0 4.9 4 8.9 8.9 8.9s8.9-4 8.9-8.9c0 4.9 4 8.9 8.9 8.9s8.9-4 8.9-8.9c0 4.9 4 8.9 8.9 8.9s8.9-4 8.9-8.9c0 4.9 4 8.9 8.9 8.9s8.9-4 8.9-8.9c0 4.9 4 8.9 8.9 8.9s8.9-4 8.9-8.9c0 4.9 4 8.9 8.9 8.9s8.9-4 8.9-8.9c.5-2.1-.3-4.1-1.5-5.6z" fill="#6670af"/><g fill="#6670af"><path d="M134.4 100.3h-6.9V45.1c-2.1-1.6-3.5-3.3-3.5-6.2 0 3.6-2.1 5.8-5.1 7.2v35.6H40.2V46.3C37 45 34.7 42.7 34.7 39c0 2.7-1.2 4.2-3.1 5.9v55.5h-6.7c-2.2 0-3.9 1.7-3.9 3.9s1.8 3.9 3.9 3.9h109.5c2.2 0 3.9-1.7 3.9-3.9s-1.8-4-3.9-4z"/><path d="M109.8 61.4c.3.3.6.4.9.4s.7-.1.9-.4c.5-.5.5-1.3 0-1.8L99.1 47.1c-.5-.5-1.3-.5-1.8 0s-.5 1.3 0 1.8l12.5 12.5zm.7 13.9c.3.3.6.4.9.4s.7-.1.9-.4c.5-.5.5-1.3 0-1.8L86.5 47.8c-.5-.5-1.3-.5-1.8 0s-.5 1.3 0 1.8l25.8 25.7z"/></g></svg>