<svg id="Layer_1" xmlns="http://www.w3.org/2000/svg" viewBox="0 0 512 415.9"><style>.st0{fill:#1da0ed}</style><path class="st0" d="M501 52.7c-18.2 8.1-37.9 13.6-58.4 16 21-12.6 37.1-32.5 44.8-56.3-19.7 11.6-41.5 20.1-64.6 24.7C404.1 17.3 377.7 5 348.4 5c-56.2 0-101.7 45.5-101.7 101.7 0 7.9.9 15.8 2.6 23.2-84.6-4.2-159.5-44.8-209.7-106.3-8.8 15-13.8 32.5-13.8 51.1 0 35.3 18 66.5 45.2 84.7-16.7-.6-32.4-5.1-46.1-12.8v1.3c0 49.3 35.1 90.4 81.6 99.8-8.5 2.3-17.5 3.6-26.8 3.6-6.6 0-12.9-.7-19.2-1.9 13 40.5 50.6 69.8 95 70.6-34.8 27.3-78.7 43.5-126.3 43.5-8.2 0-16.3-.5-24.3-1.4 45 29 98.5 45.8 156 45.8 187.2 0 289.5-155 289.5-289.5l-.4-13.2c20.1-14.2 37.4-32.1 51-52.5z"/></svg>