<svg xmlns="http://www.w3.org/2000/svg" width="20" height="21"><path fill-rule="evenodd" fill="#F3A92F" d="M16.491 8.498l-7.073 7.073a.813.813 0 0 1-.599.248.797.797 0 0 1-.586-.248l-4.716-4.716a.796.796 0 0 1-.234-.586c0-.243.078-.442.234-.599l1.186-1.172a.8.8 0 0 1 .586-.248.8.8 0 0 1 .586.248l2.944 2.943 5.315-5.301a.8.8 0 0 1 .586-.247.8.8 0 0 1 .586.247l1.185 1.172a.81.81 0 0 1 .235.6c0 .234-.078.43-.235.586zm-1.465-7.139C13.493.465 11.819.018 10.004.018c-1.815 0-3.489.447-5.021 1.341A9.964 9.964 0 0 0 1.342 5C.447 6.533 0 8.207 0 10.022c0 1.815.447 3.489 1.342 5.021a9.96 9.96 0 0 0 3.641 3.642c1.532.894 3.206 1.341 5.021 1.341s3.489-.447 5.022-1.341a9.967 9.967 0 0 0 3.641-3.642c.894-1.532 1.342-3.206 1.342-5.021S19.561 6.533 18.667 5a9.972 9.972 0 0 0-3.641-3.641z"/></svg>