<svg xmlns="http://www.w3.org/2000/svg" viewBox="0 0 109.8 109.8"><path d="M54.9 0C24.6 0 0 24.6 0 54.9s24.6 54.9 54.9 54.9c30.3 0 54.9-24.6 54.9-54.9S85.2 0 54.9 0zm4.9 80.6c0 3.5-2.7 6.2-6.4 6.2S47 84.1 47 80.6v-.9c0-3.5 2.7-6.2 6.4-6.2s6.4 2.7 6.4 6.2v.9zM76.4 41c0 11.3-8.2 16.5-18.2 18.2l-.4 4.1c-.4 2-1.8 3.6-3.9 3.6h-.5c-2.1 0-3.6-1.5-3.9-3.6l-.9-7.7c-.4-2.4 1.1-4.2 3.5-4.5 8.5-.8 13.1-4 13.1-9.7v-.2c0-5-3.9-8.5-10.3-8.5-4.8 0-8.6 1.7-12.2 4.9-.9.7-2.1 1.3-3.3 1.3-2.8 0-5-2.2-5-5 0-1.3.5-2.8 1.8-3.9 4.8-4.5 10.8-7.5 19.1-7.5 12.6 0 21.1 7 21.1 18.3v.2z" fill="#332a86"/></svg>