<svg id="Layer_1" xmlns="http://www.w3.org/2000/svg" viewBox="0 0 34.5 34.5"><style>.st0{fill:#9c9d8b}</style><path class="st0" d="M17.5 20.3c1.7 0 3-1.3 3-3 0-.7-.2-1.3-.6-1.7-.5-.8-1.4-1.2-2.4-1.2s-1.9.5-2.4 1.2c-.4.5-.6 1.1-.6 1.7 0 1.7 1.4 3 3 3zm6.5-6.6v-2.9h-2.8v2.9z"/><path class="st0" d="M22.2 17.3c0 2.6-2.1 4.7-4.7 4.7s-4.7-2.1-4.7-4.7c0-.6.1-1.2.3-1.7h-2.5v7c0 .9.7 1.6 1.6 1.6h10.4c.9 0 1.6-.7 1.6-1.6v-7h-2.5c.3.5.5 1.1.5 1.7z"/><path class="st0" d="M17.5.3C8.1.3.5 7.9.5 17.3s7.6 17 17 17 17-7.6 17-17-7.6-17-17-17zM26 15.6v7c0 1.8-1.5 3.3-3.3 3.3H12.3c-1.8 0-3.3-1.5-3.3-3.3V12.1c0-1.8 1.5-3.3 3.3-3.3h10.4c1.8 0 3.3 1.5 3.3 3.3v3.5z"/></svg>