<svg id="Layer_1" xmlns="http://www.w3.org/2000/svg" viewBox="0 0 106.7 83.7"><style>.st0{fill:#6670af}</style><path class="st0" d="M6.3 75.2c-4.2-5.7-6.3-13-6.3-22 0-11.1 2.8-21.4 8.5-30.8C14.2 12.9 22.8 5.5 34.3 0l13.2 12.3c-8.2 2.7-15 7-20.5 12.9s-8.9 12.3-10.4 19.2l1.3.6c1.9-1.5 4.8-2.2 8.8-2.2 4.4 0 8.4 1.7 12 5.2 3.6 3.5 5.3 8.3 5.3 14.6 0 5.7-2 10.6-6 14.8-4 4.2-8.8 6.3-14.5 6.3-7.2 0-13-2.8-17.2-8.5zm59.1 0c-4.2-5.7-6.3-13-6.3-22 0-11.1 2.8-21.4 8.5-30.8S81.9 5.5 93.5 0l13.2 12.3c-8.2 2.7-15 7-20.5 12.9s-8.9 12.3-10.4 19.2l1.3.6c1.9-1.5 4.8-2.2 8.8-2.2 4.4 0 8.4 1.7 12 5.2 3.6 3.5 5.3 8.3 5.3 14.6 0 5.7-2 10.6-6 14.8-4 4.2-8.8 6.3-14.5 6.3-7.3 0-13.1-2.8-17.3-8.5z"/></svg>