<svg id="Layer_1" xmlns="http://www.w3.org/2000/svg" viewBox="0 0 44 82.5"><style>.st0{fill:#fff}</style><path class="st0" d="M38.9 36.1v30.3c0 4.2-4.3 8.5-8.5 8.5H13.6c-4.2 0-8.5-4.3-8.5-8.5V36.1c-3.4.4-5.1 3.3-5.1 6.8v32.8c0 3.7 3.6 6.8 6.8 6.8h29.9c3.7 0 7.3-3.1 7.3-6.8V42.9c0-3.5-1.7-6.4-5.1-6.8z"/><path class="st0" d="M30 7V.8c0-.4-.4-.8-.9-.8s-.8.4-.8.8V7H14.2c-3.3 0-6 2.7-6 6v52.8c0 3.3 2.7 5.9 5.9 5.9h15.7c3.3 0 5.9-2.7 5.9-5.9V13c.1-3.2-2.5-5.9-5.7-6zM12.6 18.4c0-1.9 1.5-3.4 3.4-3.4h12c1.9 0 3.4 1.5 3.4 3.4v5.5c0 1.9-1.5 3.4-3.4 3.4H16c-1.9 0-3.4-1.5-3.4-3.4v-5.5zM20 45.1v-3.9h3.9v3.9H20zm3.9 3.5v3.9H20v-3.9h3.9zM20 37.7v-3.9h3.9v3.9H20zm-3.6 14.8h-3.9v-3.9h3.9v3.9zm0-7.4h-3.9v-3.9h3.9v3.9zm0-7.4h-3.9v-3.9h3.9v3.9zm7.9 27.6h-5.4c-.6 0-1.1-.5-1.1-1.1 0-.6.5-1.1 1.1-1.1h5.4c.6 0 1.1.5 1.1 1.1 0 .6-.5 1.1-1.1 1.1zm7.2-12.8h-3.9v-3.9h3.9v3.9zm0-7.4h-3.9v-3.9h3.9v3.9zm0-7.4h-3.9v-3.9h3.9v3.9z"/></svg>