<svg id="Layer_1" xmlns="http://www.w3.org/2000/svg" viewBox="0 0 124 83.5"><style>.st0{fill:#fff}</style><path class="st0" d="M83.7 34.9c.4.4.9.6 1.5.6.5 0 1.1-.2 1.5-.6.8-.8.8-2.1 0-3-6.6-6.5-15.4-10.2-24.7-10.2-9.3 0-18.1 3.6-24.7 10.2-.8.8-.8 2.1 0 3 .8.8 2.1.8 3 0 5.8-5.8 13.5-9 21.7-9s15.9 3.2 21.7 9zM51.6 46.2c-.8.8-.8 2.1 0 3 .8.8 2.1.8 3 0 2-2 4.7-3.1 7.5-3.1s5.5 1.1 7.5 3.1c.4.4.9.6 1.5.6.5 0 1.1-.2 1.5-.6.8-.8.8-2.1 0-3a14.6 14.6 0 0 0-10.4-4.3c-4.1-.1-7.9 1.5-10.6 4.3z"/><path class="st0" d="M47.2 41.8c8.2-8.2 21.5-8.2 29.7 0 .4.4.9.6 1.5.6.5 0 1.1-.2 1.5-.6.8-.8.8-2.1 0-3-4.8-4.8-11.2-7.4-17.9-7.4-6.7 0-13.1 2.6-17.8 7.4-.8.8-.8 2.1 0 3 .8.8 2.1.8 3 0z"/><path class="st0" d="M120.9 72.9h-7.1v-70c0-1.6-1.3-2.9-2.9-2.9H12.3c-1.6 0-2.9 1.3-2.9 2.9v70H3.1C1.4 72.9 0 74.3 0 76v4.3c0 1.7 1.4 3.1 3.1 3.1h117.8c1.7 0 3.1-1.4 3.1-3.1V76c0-1.7-1.4-3.1-3.1-3.1zM75 79.7H49v-3.5h26v3.5zm32.4-6.9H16.3V7.2h91.2v65.6zm3.7 7.2h-3.5v-3.5h3.5V80zm5.5 0h-3.5v-3.5h3.5V80z"/><circle class="st0" cx="62" cy="55.8" r="3.5"/></svg>